NotoKufiArabic-Regular.ufo
<glyph name="comma-ar" format="2">
  <advance width="283"/>
  <unicode hex="060C"/>
  <note>
uni060C
</note>
  <outline>
    <contour>
      <point x="65" y="11" type="curve"/>
      <point x="72" y="0" type="line"/>
      <point x="169" y="0" type="line"/>
      <point x="181.667" y="78.667"/>
      <point x="198" y="160.333"/>
      <point x="218" y="245" type="curve"/>
      <point x="151" y="245" type="line"/>
      <point x="113" y="160.333"/>
      <point x="84.333" y="82.333"/>
    </contour>
  </outline>
</glyph>
<glyph name="sadabove-ar" format="2">
  <unicode hex="0610"/>
  <note>
uni0610
</note>
  <anchor x="-10" y="752" name="_top"/>
  <anchor x="-10" y="752" name="_top2"/>
  <anchor x="-9" y="884" name="top"/>
  <outline>
    <contour>
      <point x="-98" y="710" type="line"/>
      <point x="-81.333" y="724"/>
      <point x="-68.667" y="740.667"/>
      <point x="-60" y="760" type="curve"/>
      <point x="97" y="760" type="line"/>
      <point x="97" y="807" type="line" smooth="yes"/>
      <point x="97" y="853.667"/>
      <point x="71.333" y="884"/>
      <point x="30" y="884" type="curve" smooth="yes"/>
      <point x="-11.333" y="884"/>
      <point x="-36" y="867.667"/>
      <point x="-60" y="829" type="curve"/>
      <point x="-60" y="878" type="line"/>
      <point x="-94" y="868" type="line"/>
      <point x="-94" y="783" type="line" smooth="yes"/>
      <point x="-94" y="765.667"/>
      <point x="-101" y="746.667"/>
      <point x="-115" y="726" type="curve"/>
    </contour>
    <contour>
      <point x="-60" y="791" type="line"/>
      <point x="-60" y="795" type="line"/>
      <point x="-36" y="835"/>
      <point x="-13" y="852"/>
      <point x="23" y="852" type="curve" smooth="yes"/>
      <point x="48.333" y="852"/>
      <point x="63" y="835.333"/>
      <point x="63" y="806" type="curve" smooth="yes"/>
      <point x="63" y="791" type="line"/>
    </contour>
  </outline>
</glyph>
<glyph name="ainabove-ar" format="2">
  <unicode hex="0611"/>
  <note>
uni0611
</note>
  <anchor x="0" y="712" name="_top"/>
  <anchor x="0" y="712" name="_top2"/>
  <anchor x="-2" y="884" name="top"/>
  <outline>
    <contour>
      <point x="-42" y="789" type="curve"/>
      <point x="-42" y="828" type="line"/>
      <point x="-76" y="818" type="line"/>
      <point x="-76" y="796" type="line" smooth="yes"/>
      <point x="-76" y="778.667"/>
      <point x="-83" y="759.667"/>
      <point x="-97" y="739" type="curve"/>
      <point x="-80" y="723" type="line"/>
      <point x="-64.667" y="735"/>
      <point x="-53.667" y="749"/>
      <point x="-47" y="765" type="curve"/>
      <point x="-37.667" y="760.333"/>
      <point x="-26.333" y="758"/>
      <point x="-13" y="758" type="curve" smooth="yes"/>
      <point x="20.333" y="758"/>
      <point x="71.667" y="768.667"/>
      <point x="93" y="778" type="curve"/>
      <point x="93" y="810" type="line"/>
      <point x="72.333" y="800"/>
      <point x="51.333" y="793.667"/>
      <point x="30" y="791" type="curve"/>
      <point x="18" y="795"/>
      <point x="12" y="804.667"/>
      <point x="12" y="820" type="curve" smooth="yes"/>
      <point x="12" y="842.667"/>
      <point x="26.667" y="853"/>
      <point x="44" y="853" type="curve" smooth="yes"/>
      <point x="56" y="853"/>
      <point x="66.667" y="850.667"/>
      <point x="76" y="846" type="curve"/>
      <point x="86" y="875" type="line"/>
      <point x="71.333" y="881"/>
      <point x="57" y="884"/>
      <point x="43" y="884" type="curve" smooth="yes"/>
      <point x="7" y="884"/>
      <point x="-21" y="864.333"/>
      <point x="-21" y="827" type="curve" smooth="yes"/>
      <point x="-21" y="809.667"/>
      <point x="-14" y="796.333"/>
      <point x="0" y="787" type="curve"/>
      <point x="-14" y="787" type="line" smooth="yes"/>
      <point x="-25.333" y="787"/>
      <point x="-34.667" y="787.667"/>
    </contour>
  </outline>
</glyph>
<glyph name="rehHahabove-ar" format="2">
  <unicode hex="0612"/>
  <note>
uni0612
</note>
  <anchor x="0" y="625" name="_top"/>
  <anchor x="0" y="625" name="_top2"/>
  <anchor x="-17" y="869" name="top"/>
  <outline>
    <contour>
      <point x="-153" y="603" type="curve"/>
      <point x="-121" y="621" type="line"/>
      <point x="-123.667" y="626.333"/>
      <point x="-125" y="633.667"/>
      <point x="-125" y="643" type="curve" smooth="yes"/>
      <point x="-125" y="689"/>
      <point x="-66" y="712"/>
      <point x="-5" y="730" type="curve"/>
      <point x="1.667" y="718"/>
      <point x="12" y="706.667"/>
      <point x="26" y="696" type="curve"/>
      <point x="52" y="724" type="line"/>
      <point x="33.333" y="736"/>
      <point x="19.667" y="751.667"/>
      <point x="13" y="789" type="curve" smooth="yes"/>
      <point x="5" y="839.667"/>
      <point x="-26.333" y="869"/>
      <point x="-77" y="869" type="curve" smooth="yes"/>
      <point x="-103.667" y="869"/>
      <point x="-137" y="860.667"/>
      <point x="-161" y="846" type="curve"/>
      <point x="-147" y="818" type="line"/>
      <point x="-122.333" y="831.333"/>
      <point x="-99" y="838"/>
      <point x="-77" y="838" type="curve" smooth="yes"/>
      <point x="-45" y="838"/>
      <point x="-34.333" y="824.333"/>
      <point x="-24" y="781" type="curve" smooth="yes"/>
      <point x="-22" y="775"/>
      <point x="-21" y="768"/>
      <point x="-19" y="762" type="curve"/>
      <point x="-117.667" y="731.333"/>
      <point x="-161" y="692"/>
      <point x="-161" y="640" type="curve" smooth="yes"/>
      <point x="-161" y="625.333"/>
      <point x="-158.333" y="613"/>
    </contour>
    <contour>
      <point x="55" y="610" type="curve" smooth="yes"/>
      <point x="101.667" y="610"/>
      <point x="127" y="643.667"/>
      <point x="127" y="697" type="curve" smooth="yes"/>
      <point x="127" y="865" type="line"/>
      <point x="93" y="855" type="line"/>
      <point x="93" y="695" type="line" smooth="yes"/>
      <point x="93" y="663"/>
      <point x="79" y="641"/>
      <point x="55" y="641" type="curve" smooth="yes"/>
      <point x="46.333" y="641"/>
      <point x="36.333" y="643.333"/>
      <point x="25" y="648" type="curve"/>
      <point x="15" y="621" type="line"/>
      <point x="29" y="613.667"/>
      <point x="42.333" y="610"/>
    </contour>
  </outline>
</glyph>
<glyph name="takhallusabove-ar" format="2">
  <unicode hex="0614"/>
  <note>
uni0614
</note>
  <anchor x="0" y="713" name="_top"/>
  <anchor x="0" y="713" name="_top2"/>
  <anchor x="-9" y="825" name="top"/>
  <outline>
    <contour>
      <point x="-131" y="692" type="line"/>
      <point x="-68.739" y="699.434"/>
      <point x="-24.2" y="706.662"/>
      <point x="-5" y="717" type="curve" smooth="yes"/>
      <point x="3.667" y="721.667"/>
      <point x="12.333" y="729.667"/>
      <point x="21" y="741" type="curve"/>
      <point x="31.667" y="727.667"/>
      <point x="44" y="720"/>
      <point x="68" y="720" type="curve" smooth="yes"/>
      <point x="104.667" y="720"/>
      <point x="123" y="741.333"/>
      <point x="123" y="784" type="curve" smooth="yes"/>
      <point x="123" y="825" type="line"/>
      <point x="89" y="815" type="line"/>
      <point x="89" y="790" type="line" smooth="yes"/>
      <point x="89" y="764.667"/>
      <point x="82.667" y="754"/>
      <point x="60" y="754" type="curve" smooth="yes"/>
      <point x="37.333" y="754"/>
      <point x="35" y="768"/>
      <point x="35" y="784" type="curve" smooth="yes"/>
      <point x="35" y="809" type="line"/>
      <point x="5" y="799" type="line"/>
      <point x="5" y="771" type="line" smooth="yes"/>
      <point x="5" y="760"/>
      <point x="-2" y="751"/>
      <point x="-13" y="744" type="curve" smooth="yes"/>
      <point x="-25" y="737"/>
      <point x="-41" y="732"/>
      <point x="-61" y="728" type="curve" smooth="yes"/>
      <point x="-85" y="722.667"/>
      <point x="-111.333" y="717.667"/>
      <point x="-140" y="713" type="curve"/>
    </contour>
  </outline>
</glyph>
<glyph name="hamza-ar" format="2">
  <advance width="490"/>
  <unicode hex="0621"/>
  <note>
uni0621
</note>
  <anchor x="254" y="-78" name="bottom"/>
  <anchor x="249" y="488" name="top"/>
  <outline>
    <contour>
      <point x="65" y="64" type="curve"/>
      <point x="65" y="-9" type="line"/>
      <point x="130.333" y="5.667"/>
      <point x="384.667" y="39"/>
      <point x="450" y="39" type="curve"/>
      <point x="450" y="120" type="line"/>
      <point x="428" y="120"/>
      <point x="366.333" y="113.667"/>
      <point x="265" y="101" type="curve" smooth="yes"/>
      <point x="243" y="98" type="line"/>
      <point x="205.667" y="116.667"/>
      <point x="180" y="160.333"/>
      <point x="180" y="211" type="curve" smooth="yes"/>
      <point x="180" y="289.667"/>
      <point x="221.667" y="331"/>
      <point x="299" y="331" type="curve" smooth="yes"/>
      <point x="331" y="331"/>
      <point x="363.333" y="322.333"/>
      <point x="396" y="305" type="curve"/>
      <point x="418" y="380" type="line"/>
      <point x="385.333" y="399.333"/>
      <point x="345" y="409"/>
      <point x="297" y="409" type="curve" smooth="yes"/>
      <point x="214.333" y="409"/>
      <point x="149.5" y="377.333"/>
      <point x="115.5" y="320" type="curve" smooth="yes"/>
      <point x="98.5" y="291.333"/>
      <point x="90" y="257"/>
      <point x="90" y="217" type="curve" smooth="yes"/>
      <point x="90" y="158.333"/>
      <point x="116.667" y="105.333"/>
      <point x="154" y="80" type="curve"/>
      <point x="126" y="76"/>
      <point x="94" y="70"/>
    </contour>
  </outline>
</glyph>
<glyph name="meem-ar" format="2">
  <advance width="649"/>
  <unicode hex="0645"/>
  <note>
uni0645
</note>
  <anchor x="361" y="-78" name="bottom"/>
  <anchor x="342" y="566" name="top"/>
  <outline>
    <contour>
      <point x="65" y="-58" type="curve" smooth="yes"/>
      <point x="65" y="-320" type="line"/>
      <point x="149" y="-320" type="line"/>
      <point x="149" y="-73" type="line" smooth="yes"/>
      <point x="149" y="-24.333"/>
      <point x="172.667" y="0"/>
      <point x="220" y="0" type="curve" smooth="yes"/>
      <point x="356" y="0" type="line" smooth="yes"/>
      <point x="445.333" y="0"/>
      <point x="517.5" y="42"/>
      <point x="555.5" y="118" type="curve" smooth="yes"/>
      <point x="574.5" y="156"/>
      <point x="584" y="201.333"/>
      <point x="584" y="254" type="curve" smooth="yes"/>
      <point x="584" y="339.333"/>
      <point x="548.833" y="410.833"/>
      <point x="485.5" y="447.5" type="curve" smooth="yes"/>
      <point x="453.833" y="465.833"/>
      <point x="417.333" y="475"/>
      <point x="376" y="475" type="curve" smooth="yes"/>
      <point x="308" y="475"/>
      <point x="242.333" y="449.333"/>
      <point x="193" y="408" type="curve"/>
      <point x="169" y="361.333"/>
      <point x="157" y="308.333"/>
      <point x="157" y="249" type="curve" smooth="yes"/>
      <point x="157" y="198.333"/>
      <point x="169.333" y="141.333"/>
      <point x="194" y="78" type="curve"/>
      <point x="113" y="78"/>
      <point x="65" y="26"/>
    </contour>
    <contour>
      <point x="247" y="266" type="curve" smooth="yes"/>
      <point x="247" y="300.667"/>
      <point x="247" y="329"/>
      <point x="259" y="357" type="curve"/>
      <point x="295" y="384.333"/>
      <point x="334" y="398"/>
      <point x="376" y="398" type="curve" smooth="yes"/>
      <point x="441.333" y="398"/>
      <point x="494" y="339"/>
      <point x="494" y="255" type="curve" smooth="yes"/>
      <point x="494" y="140.333"/>
      <point x="445.333" y="78"/>
      <point x="356" y="78" type="curve" smooth="yes"/>
      <point x="285" y="78" type="line"/>
      <point x="255.667" y="147.333"/>
      <point x="247" y="204.667"/>
    </contour>
  </outline>
</glyph>
<glyph name="heh-ar" format="2">
  <advance width="597"/>
  <unicode hex="0647"/>
  <note>
uni0647
</note>
  <anchor x="293" y="-78" name="bottom"/>
  <anchor x="264" y="566" name="top"/>
  <outline>
    <contour>
      <point x="297" y="-10" type="curve" smooth="yes"/>
      <point x="453" y="-10"/>
      <point x="532" y="71.333"/>
      <point x="532" y="222" type="curve" smooth="yes"/>
      <point x="532" y="315.333"/>
      <point x="488" y="407.5"/>
      <point x="416" y="457.5" type="curve" smooth="yes"/>
      <point x="380" y="482.5"/>
      <point x="341.333" y="495"/>
      <point x="300" y="495" type="curve" smooth="yes"/>
      <point x="212" y="495"/>
      <point x="136.167" y="443.167"/>
      <point x="95.5" y="358.5" type="curve" smooth="yes"/>
      <point x="75.167" y="316.167"/>
      <point x="65" y="270.667"/>
      <point x="65" y="222" type="curve" smooth="yes"/>
      <point x="65" y="74"/>
      <point x="150.333" y="-10"/>
    </contour>
    <contour>
      <point x="299" y="67" type="curve" smooth="yes"/>
      <point x="203" y="67"/>
      <point x="155" y="118.333"/>
      <point x="155" y="221" type="curve" smooth="yes"/>
      <point x="155" y="338.333"/>
      <point x="216.667" y="418"/>
      <point x="298" y="418" type="curve" smooth="yes"/>
      <point x="388.667" y="418"/>
      <point x="442" y="342.333"/>
      <point x="442" y="221" type="curve" smooth="yes"/>
      <point x="442" y="118.333"/>
      <point x="394.333" y="67"/>
    </contour>
  </outline>
</glyph>
<glyph name="alefMaksura-ar" format="2">
  <advance width="839"/>
  <unicode hex="0649"/>
  <note>
uni0649
</note>
  <anchor x="391" y="-322" name="bottom"/>
  <anchor x="225" y="322" name="top"/>
  <outline>
    <contour>
      <point x="266" y="-240" type="curve" smooth="yes"/>
      <point x="481" y="-240" type="line" smooth="yes"/>
      <point x="645" y="-240"/>
      <point x="738" y="-174"/>
      <point x="738" y="-62" type="curve" smooth="yes"/>
      <point x="738" y="-14"/>
      <point x="714.333" y="32.333"/>
      <point x="673" y="71" type="curve" smooth="yes"/>
      <point x="652.333" y="90.333"/>
      <point x="617.333" y="115"/>
      <point x="568" y="145" type="curve" smooth="yes"/>
      <point x="518" y="175"/>
      <point x="493" y="201.333"/>
      <point x="493" y="224" type="curve" smooth="yes"/>
      <point x="493" y="272"/>
      <point x="540" y="330.833"/>
      <point x="600" y="367.5" type="curve" smooth="yes"/>
      <point x="626" y="383"/>
      <point x="656" y="395"/>
      <point x="684" y="395" type="curve" smooth="yes"/>
      <point x="707" y="395"/>
      <point x="751" y="386"/>
      <point x="768" y="378" type="curve"/>
      <point x="804" y="445" type="line"/>
      <point x="778.667" y="462.333"/>
      <point x="720" y="485"/>
      <point x="675" y="485" type="curve" smooth="yes"/>
      <point x="592.333" y="485"/>
      <point x="496.667" y="421"/>
      <point x="438" y="333" type="curve" smooth="yes"/>
      <point x="408.667" y="289"/>
      <point x="394" y="247"/>
      <point x="394" y="207" type="curve" smooth="yes"/>
      <point x="394" y="172.333"/>
      <point x="411" y="142.833"/>
      <point x="443" y="115.5" type="curve" smooth="yes"/>
      <point x="459" y="101.833"/>
      <point x="487" y="83"/>
      <point x="527" y="59" type="curve" smooth="yes"/>
      <point x="584" y="25"/>
      <point x="647" y="-14"/>
      <point x="647" y="-60" type="curve" smooth="yes"/>
      <point x="647" y="-121.333"/>
      <point x="583.667" y="-162"/>
      <point x="481" y="-162" type="curve" smooth="yes"/>
      <point x="285" y="-162" type="line" smooth="yes"/>
      <point x="201" y="-162"/>
      <point x="155" y="-101"/>
      <point x="155" y="7" type="curve" smooth="yes"/>
      <point x="155" y="77.19"/>
      <point x="161.029" y="125.075"/>
      <point x="183" y="181" type="curve"/>
      <point x="100" y="181" type="line"/>
      <point x="76" y="122.333"/>
      <point x="65" y="70.333"/>
      <point x="65" y="1" type="curve" smooth="yes"/>
      <point x="65" y="-147"/>
      <point x="140.667" y="-240"/>
    </contour>
  </outline>
</glyph>
<glyph name="dammatan-ar" format="2">
  <unicode hex="064C"/>
  <note>
uni064C
</note>
  <anchor x="0" y="781" name="_top"/>
  <anchor x="0" y="781" name="_top2"/>
  <anchor x="-4" y="1005" name="top"/>
  <outline>
    <contour>
      <point x="5" y="780" type="curve" smooth="yes"/>
      <point x="63.667" y="780"/>
      <point x="118.333" y="806.667"/>
      <point x="149" y="852" type="curve" smooth="yes"/>
      <point x="164.333" y="874.667"/>
      <point x="172" y="899.333"/>
      <point x="172" y="926" type="curve" smooth="yes"/>
      <point x="172" y="972.667"/>
      <point x="138" y="1005"/>
      <point x="86" y="1005" type="curve" smooth="yes"/>
      <point x="32.667" y="1005"/>
      <point x="-4" y="972.667"/>
      <point x="-4" y="922" type="curve" smooth="yes"/>
      <point x="-4" y="892.667"/>
      <point x="10.333" y="859"/>
      <point x="29" y="835" type="curve"/>
      <point x="23.667" y="831.667"/>
      <point x="14.333" y="830"/>
      <point x="1" y="830" type="curve" smooth="yes"/>
      <point x="-28.333" y="830"/>
      <point x="-66.333" y="856.333"/>
      <point x="-101" y="903" type="curve"/>
      <point x="-179" y="832" type="line"/>
      <point x="-147" y="794" type="line"/>
      <point x="-106" y="827" type="line"/>
      <point x="-67" y="794"/>
      <point x="-43" y="780"/>
    </contour>
    <contour>
      <point x="75" y="851" type="curve"/>
      <point x="56.333" y="875.667"/>
      <point x="47" y="897.667"/>
      <point x="47" y="917" type="curve" smooth="yes"/>
      <point x="47" y="943.667"/>
      <point x="64" y="957"/>
      <point x="84" y="957" type="curve" smooth="yes"/>
      <point x="105.333" y="957"/>
      <point x="120" y="942"/>
      <point x="120" y="922" type="curve" smooth="yes"/>
      <point x="120" y="891.333"/>
      <point x="105" y="867.667"/>
    </contour>
  </outline>
</glyph>
<glyph name="damma-ar" format="2">
  <unicode hex="064F"/>
  <note>
uni064F
</note>
  <anchor x="0" y="778" name="_top"/>
  <anchor x="0" y="1015" name="top"/>
  <outline>
    <contour>
      <point x="-45" y="780" type="curve" smooth="yes"/>
      <point x="20.333" y="780"/>
      <point x="85.167" y="809.5"/>
      <point x="120.5" y="855.5" type="curve" smooth="yes"/>
      <point x="138.167" y="878.5"/>
      <point x="147" y="902"/>
      <point x="147" y="926" type="curve" smooth="yes"/>
      <point x="147" y="970"/>
      <point x="114.333" y="1005"/>
      <point x="61" y="1005" type="curve" smooth="yes"/>
      <point x="7.667" y="1005"/>
      <point x="-29" y="972.667"/>
      <point x="-29" y="922" type="curve" smooth="yes"/>
      <point x="-29" y="892"/>
      <point x="-18.333" y="863.667"/>
      <point x="3" y="837" type="curve"/>
      <point x="-11" y="832.333"/>
      <point x="-27.667" y="830"/>
      <point x="-47" y="830" type="curve" smooth="yes"/>
      <point x="-69.667" y="830"/>
      <point x="-93.333" y="838.333"/>
      <point x="-118" y="855" type="curve"/>
      <point x="-147" y="813" type="line"/>
      <point x="-116.333" y="791"/>
      <point x="-82.333" y="780"/>
    </contour>
    <contour>
      <point x="47" y="854" type="curve"/>
      <point x="30.333" y="875.333"/>
      <point x="22" y="896.333"/>
      <point x="22" y="917" type="curve" smooth="yes"/>
      <point x="22" y="943.667"/>
      <point x="39" y="957"/>
      <point x="59" y="957" type="curve" smooth="yes"/>
      <point x="80.333" y="957"/>
      <point x="95" y="942"/>
      <point x="95" y="922" type="curve" smooth="yes"/>
      <point x="95" y="899.333"/>
      <point x="81.667" y="872.667"/>
    </contour>
  </outline>
</glyph>
<glyph name="sukun-ar" format="2">
  <unicode hex="0652"/>
  <note>
uni0652
</note>
  <anchor x="0" y="811" name="_top"/>
  <anchor x="0" y="811" name="_top2"/>
  <anchor x="1" y="1026" name="top"/>
  <outline>
    <contour>
      <point x="-1" y="816" type="curve" smooth="yes"/>
      <point x="65.667" y="816"/>
      <point x="111" y="858"/>
      <point x="111" y="922" type="curve" smooth="yes"/>
      <point x="111" y="984.667"/>
      <point x="65.667" y="1026"/>
      <point x="-1" y="1026" type="curve" smooth="yes"/>
      <point x="-66.333" y="1026"/>
      <point x="-110" y="986.333"/>
      <point x="-110" y="921" type="curve" smooth="yes"/>
      <point x="-110" y="855.667"/>
      <point x="-67.667" y="816"/>
    </contour>
    <contour>
      <point x="-1" y="866" type="curve" smooth="yes"/>
      <point x="-37.667" y="866"/>
      <point x="-56" y="884.333"/>
      <point x="-56" y="921" type="curve" smooth="yes"/>
      <point x="-56" y="955.667"/>
      <point x="-33" y="976"/>
      <point x="-1" y="976" type="curve" smooth="yes"/>
      <point x="31" y="976"/>
      <point x="54" y="955.667"/>
      <point x="54" y="921" type="curve" smooth="yes"/>
      <point x="54" y="886.333"/>
      <point x="31" y="866"/>
    </contour>
  </outline>
</glyph>
<glyph name="madda-ar" format="2">
  <unicode hex="0653"/>
  <note>
uni0653
</note>
  <anchor x="0" y="762" name="_top"/>
  <anchor x="0" y="762" name="_top2"/>
  <anchor x="10" y="864" name="top"/>
  <outline>
    <contour>
      <point x="-148" y="760" type="curve"/>
      <point x="-103" y="760" type="line"/>
      <point x="-93.667" y="792"/>
      <point x="-84" y="805"/>
      <point x="-56" y="805" type="curve" smooth="yes"/>
      <point x="-19.962" y="805"/>
      <point x="31.524" y="761"/>
      <point x="75" y="761" type="curve" smooth="yes"/>
      <point x="131" y="761"/>
      <point x="160.333" y="800"/>
      <point x="167" y="864" type="curve"/>
      <point x="122" y="864" type="line"/>
      <point x="112.667" y="832"/>
      <point x="101.667" y="819"/>
      <point x="75" y="819" type="curve" smooth="yes"/>
      <point x="41.892" y="819"/>
      <point x="-11.546" y="863"/>
      <point x="-56" y="863" type="curve" smooth="yes"/>
      <point x="-112" y="863"/>
      <point x="-141.333" y="824"/>
    </contour>
  </outline>
</glyph>
<glyph name="hamzaabove-ar" format="2">
  <unicode hex="0654"/>
  <note>
uni0654
</note>
  <anchor x="0" y="762" name="_top"/>
  <anchor x="0" y="749" name="_top2"/>
  <anchor x="-3" y="955" name="top"/>
  <outline>
    <contour>
      <point x="-99" y="795" type="line"/>
      <point x="-99" y="749" type="line"/>
      <point x="-27" y="760"/>
      <point x="44" y="769"/>
      <point x="94" y="773" type="curve"/>
      <point x="94" y="822" type="line"/>
      <point x="79" y="822"/>
      <point x="34" y="816"/>
      <point x="9" y="812" type="curve"/>
      <point x="-6" y="809" type="line"/>
      <point x="-23.333" y="817"/>
      <point x="-36" y="833.333"/>
      <point x="-36" y="856" type="curve" smooth="yes"/>
      <point x="-36" y="890.667"/>
      <point x="-13.333" y="907"/>
      <point x="16" y="907" type="curve" smooth="yes"/>
      <point x="36" y="907"/>
      <point x="52.667" y="903"/>
      <point x="66" y="895" type="curve"/>
      <point x="81" y="940" type="line"/>
      <point x="63" y="950"/>
      <point x="41" y="955"/>
      <point x="15" y="955" type="curve" smooth="yes"/>
      <point x="-46.333" y="955"/>
      <point x="-87" y="922.333"/>
      <point x="-87" y="865" type="curve" smooth="yes"/>
      <point x="-87" y="838.333"/>
      <point x="-75.333" y="817.333"/>
      <point x="-52" y="802" type="curve"/>
    </contour>
  </outline>
</glyph>
<glyph name="dammainverted-ar" format="2">
  <unicode hex="0657"/>
  <note>
uni0657
</note>
  <anchor x="0" y="625" name="_top"/>
  <anchor x="0" y="625" name="_top2"/>
  <anchor x="9" y="818" name="top"/>
  <outline>
    <contour>
      <point x="51" y="818" type="line"/>
      <point x="-7" y="787"/>
      <point x="-51" y="748"/>
      <point x="-51" y="688" type="curve" smooth="yes"/>
      <point x="-51" y="654.667"/>
      <point x="-32.667" y="629"/>
      <point x="-6" y="629" type="curve" smooth="yes"/>
      <point x="24.667" y="629"/>
      <point x="52" y="655"/>
      <point x="52" y="683" type="curve" smooth="yes"/>
      <point x="52" y="707"/>
      <point x="29" y="731.333"/>
      <point x="-3" y="742" type="curve"/>
      <point x="8" y="756"/>
      <point x="34" y="773"/>
      <point x="68" y="793" type="curve"/>
    </contour>
    <contour>
      <point x="-18" y="718" type="curve"/>
      <point x="6" y="708.667"/>
      <point x="23" y="694.333"/>
      <point x="23" y="681" type="curve" smooth="yes"/>
      <point x="23" y="671.667"/>
      <point x="11" y="658"/>
      <point x="-1" y="658" type="curve" smooth="yes"/>
      <point x="-14.333" y="658"/>
      <point x="-26" y="673.667"/>
      <point x="-26" y="691" type="curve" smooth="yes"/>
      <point x="-26" y="700.333"/>
      <point x="-23.333" y="709.333"/>
    </contour>
  </outline>
</glyph>
<glyph name="dammareversed-ar" format="2">
  <unicode hex="065D"/>
  <note>
uni065D
</note>
  <anchor x="0" y="586" name="_top"/>
  <anchor x="0" y="586" name="_top2"/>
  <anchor x="0" y="814" name="top"/>
  <outline>
    <contour>
      <point x="45" y="589" type="curve" smooth="yes"/>
      <point x="82.333" y="589"/>
      <point x="116.333" y="600"/>
      <point x="147" y="622" type="curve"/>
      <point x="118" y="664" type="line"/>
      <point x="93.333" y="647.333"/>
      <point x="69.667" y="639"/>
      <point x="47" y="639" type="curve" smooth="yes"/>
      <point x="27.667" y="639"/>
      <point x="11" y="641.333"/>
      <point x="-3" y="646" type="curve"/>
      <point x="18.333" y="673.333"/>
      <point x="29" y="701.667"/>
      <point x="29" y="731" type="curve" smooth="yes"/>
      <point x="29" y="781.667"/>
      <point x="-7.667" y="814"/>
      <point x="-61" y="814" type="curve" smooth="yes"/>
      <point x="-113" y="814"/>
      <point x="-147" y="781.667"/>
      <point x="-147" y="735" type="curve" smooth="yes"/>
      <point x="-147" y="688.333"/>
      <point x="-108.833" y="636.833"/>
      <point x="-49.5" y="609.5" type="curve" smooth="yes"/>
      <point x="-19.833" y="595.833"/>
      <point x="11.667" y="589"/>
    </contour>
    <contour>
      <point x="-47" y="663" type="curve"/>
      <point x="-81.667" y="681.667"/>
      <point x="-95" y="708.333"/>
      <point x="-95" y="731" type="curve" smooth="yes"/>
      <point x="-95" y="752.333"/>
      <point x="-80.333" y="766"/>
      <point x="-59" y="766" type="curve" smooth="yes"/>
      <point x="-39" y="766"/>
      <point x="-22" y="754"/>
      <point x="-22" y="726" type="curve" smooth="yes"/>
      <point x="-22" y="705.333"/>
      <point x="-30.333" y="684.333"/>
    </contour>
  </outline>
</glyph>
<glyph name="fathatwodots-ar" format="2">
  <unicode hex="065E"/>
  <note>
uni065E
</note>
  <anchor x="1" y="792" name="_bottom"/>
  <anchor x="0" y="527" name="_top"/>
  <anchor x="0" y="527" name="_top2"/>
  <anchor x="1" y="524" name="bottom"/>
  <outline>
    <contour>
      <point x="126" y="724" type="line"/>
      <point x="-89" y="644" type="line"/>
      <point x="-124" y="565" type="line"/>
      <point x="86" y="645" type="line"/>
    </contour>
    <contour>
      <point x="-35" y="699" type="curve" smooth="yes"/>
      <point x="-16.333" y="699"/>
      <point x="-1" y="709.333"/>
      <point x="-1" y="736" type="curve" smooth="yes"/>
      <point x="-1" y="761.333"/>
      <point x="-16.333" y="772"/>
      <point x="-35" y="772" type="curve" smooth="yes"/>
      <point x="-53.667" y="772"/>
      <point x="-69" y="761.333"/>
      <point x="-69" y="736" type="curve" smooth="yes"/>
      <point x="-69" y="709.333"/>
      <point x="-53.667" y="699"/>
    </contour>
    <contour>
      <point x="46" y="524" type="curve" smooth="yes"/>
      <point x="64.667" y="524"/>
      <point x="80" y="535.667"/>
      <point x="80" y="561" type="curve" smooth="yes"/>
      <point x="80" y="586.333"/>
      <point x="64.667" y="597"/>
      <point x="46" y="597" type="curve" smooth="yes"/>
      <point x="27.333" y="597"/>
      <point x="12" y="586.333"/>
      <point x="12" y="561" type="curve" smooth="yes"/>
      <point x="12" y="535.667"/>
      <point x="27.333" y="524"/>
    </contour>
  </outline>
</glyph>
<glyph name="wavyhamza_below" format="2">
  <unicode hex="065F"/>
  <note>
wavyhamza_below
</note>
  <outline>
    <contour>
      <point x="94" y="-237" type="curve"/>
      <point x="94" y="-188" type="line"/>
      <point x="72.667" y="-193.333"/>
      <point x="8.667" y="-202.667"/>
      <point x="-6" y="-204" type="curve"/>
      <point x="-26" y="-194"/>
      <point x="-36" y="-178.333"/>
      <point x="-36" y="-157" type="curve" smooth="yes"/>
      <point x="-36" y="-122.333"/>
      <point x="-13.333" y="-106"/>
      <point x="16" y="-106" type="curve" smooth="yes"/>
      <point x="36" y="-106"/>
      <point x="52.667" y="-110"/>
      <point x="66" y="-118" type="curve"/>
      <point x="81" y="-73" type="line"/>
      <point x="63" y="-63"/>
      <point x="41" y="-58"/>
      <point x="15" y="-58" type="curve" smooth="yes"/>
      <point x="-49" y="-58"/>
      <point x="-87" y="-92"/>
      <point x="-87" y="-148" type="curve" smooth="yes"/>
      <point x="-87" y="-177.333"/>
      <point x="-70.667" y="-199"/>
      <point x="-52" y="-211" type="curve"/>
      <point x="-64.667" y="-211"/>
      <point x="-77.333" y="-208.333"/>
      <point x="-90" y="-203" type="curve" smooth="yes"/>
      <point x="-102.667" y="-198.333"/>
      <point x="-112.333" y="-196"/>
      <point x="-119" y="-196" type="curve" smooth="yes"/>
      <point x="-127.667" y="-196"/>
      <point x="-136.833" y="-198.833"/>
      <point x="-146.5" y="-204.5" type="curve" smooth="yes"/>
      <point x="-156.167" y="-210.167"/>
      <point x="-168.333" y="-222.333"/>
      <point x="-183" y="-241" type="curve"/>
      <point x="-160" y="-262" type="line"/>
      <point x="-143.333" y="-247.333"/>
      <point x="-127.667" y="-240"/>
      <point x="-113" y="-240" type="curve" smooth="yes"/>
      <point x="-106.333" y="-240"/>
      <point x="-96" y="-242.667"/>
      <point x="-82" y="-248" type="curve" smooth="yes"/>
      <point x="-68" y="-252.667"/>
      <point x="-54" y="-255"/>
      <point x="-40" y="-255" type="curve" smooth="yes"/>
      <point x="-14" y="-255"/>
      <point x="59.333" y="-245"/>
    </contour>
  </outline>
</glyph>
<glyph name="three-ar" format="2">
  <advance width="589"/>
  <unicode hex="0663"/>
  <note>
uni0663
</note>
  <outline>
    <contour>
      <point x="45" y="674" type="line"/>
      <point x="258" y="0" type="line"/>
      <point x="353" y="0" type="line"/>
      <point x="205" y="454" type="line"/>
      <point x="213.667" y="447.333"/>
      <point x="227.333" y="444"/>
      <point x="246" y="444" type="curve" smooth="yes"/>
      <point x="264" y="444"/>
      <point x="280.333" y="451.333"/>
      <point x="295" y="466" type="curve"/>
      <point x="317.667" y="450.667"/>
      <point x="349" y="443"/>
      <point x="389" y="443" type="curve" smooth="yes"/>
      <point x="499.667" y="443"/>
      <point x="544" y="508"/>
      <point x="544" y="660" type="curve" smooth="yes"/>
      <point x="544" y="674" type="line"/>
      <point x="455" y="674" type="line"/>
      <point x="455" y="616.667"/>
      <point x="449.833" y="576.333"/>
      <point x="439.5" y="553" type="curve" smooth="yes"/>
      <point x="429.167" y="529.667"/>
      <point x="411" y="518"/>
      <point x="385" y="518" type="curve" smooth="yes"/>
      <point x="368.333" y="518"/>
      <point x="353.333" y="520"/>
      <point x="340" y="524" type="curve"/>
      <point x="356" y="558.667"/>
      <point x="361" y="606"/>
      <point x="361" y="674" type="curve"/>
      <point x="272" y="674" type="line"/>
      <point x="272" y="620"/>
      <point x="267.833" y="580.5"/>
      <point x="259.5" y="555.5" type="curve" smooth="yes"/>
      <point x="251.167" y="530.5"/>
      <point x="237.333" y="518"/>
      <point x="218" y="518" type="curve" smooth="yes"/>
      <point x="201.333" y="518"/>
      <point x="190.333" y="519.667"/>
      <point x="185" y="523" type="curve"/>
      <point x="140" y="674" type="line"/>
    </contour>
  </outline>
</glyph>
<glyph name="four-ar" format="2">
  <advance width="481"/>
  <unicode hex="0664"/>
  <note>
uni0664
</note>
  <outline>
    <contour>
      <point x="284" y="-10" type="curve" smooth="yes"/>
      <point x="350" y="-10"/>
      <point x="404" y="-2.667"/>
      <point x="446" y="12" type="curve"/>
      <point x="446" y="86" type="line"/>
      <point x="408.667" y="72"/>
      <point x="357.333" y="65"/>
      <point x="292" y="65" type="curve" smooth="yes"/>
      <point x="229.333" y="65"/>
      <point x="181" y="85.333"/>
      <point x="181" y="112" type="curve" smooth="yes"/>
      <point x="181" y="131"/>
      <point x="199" y="160"/>
      <point x="225.5" y="189.5" type="curve" smooth="yes"/>
      <point x="239.833" y="205.833"/>
      <point x="286.667" y="254.667"/>
      <point x="366" y="336" type="curve"/>
      <point x="241" y="438"/>
      <point x="198" y="474"/>
      <point x="198" y="487" type="curve" smooth="yes"/>
      <point x="198" y="502.866"/>
      <point x="268.937" y="553.839"/>
      <point x="311" y="577.5" type="curve" smooth="yes"/>
      <point x="337.667" y="592.5"/>
      <point x="362.667" y="603.667"/>
      <point x="386" y="611" type="curve"/>
      <point x="359" y="687" type="line"/>
      <point x="264.333" y="656.333"/>
      <point x="187" y="603"/>
      <point x="143" y="547" type="curve" smooth="yes"/>
      <point x="121" y="519"/>
      <point x="110" y="495"/>
      <point x="110" y="475" type="curve" smooth="yes"/>
      <point x="110" y="455"/>
      <point x="143.667" y="418.333"/>
      <point x="211" y="365" type="curve" smooth="yes"/>
      <point x="262" y="324" type="line"/>
      <point x="159.333" y="245.333"/>
      <point x="85" y="151"/>
      <point x="85" y="103" type="curve" smooth="yes"/>
      <point x="85" y="61.667"/>
      <point x="119.667" y="25"/>
      <point x="181" y="5" type="curve" smooth="yes"/>
      <point x="211.667" y="-5"/>
      <point x="246" y="-10"/>
    </contour>
  </outline>
</glyph>
<glyph name="yehbarree-ar" format="2">
  <advance width="577"/>
  <unicode hex="06D2"/>
  <note>
uni06D2
</note>
  <anchor x="391" y="-287" name="bottom"/>
  <anchor x="293" y="391" name="top"/>
  <outline>
    <contour>
      <point x="196" y="-203" type="curve" smooth="yes"/>
      <point x="662" y="-203" type="line"/>
      <point x="662" y="-125" type="line"/>
      <point x="194" y="-125" type="line" smooth="yes"/>
      <point x="158" y="-125"/>
      <point x="134" y="-103.333"/>
      <point x="134" y="-74" type="curve" smooth="yes"/>
      <point x="134" y="-38"/>
      <point x="147.667" y="-19.5"/>
      <point x="185" y="2.5" type="curve" smooth="yes"/>
      <point x="203.667" y="13.5"/>
      <point x="241.333" y="30.667"/>
      <point x="298" y="54" type="curve" smooth="yes"/>
      <point x="414" y="102"/>
      <point x="450.833" y="134"/>
      <point x="471.5" y="182" type="curve" smooth="yes"/>
      <point x="481.833" y="206"/>
      <point x="487" y="237.333"/>
      <point x="487" y="276" type="curve" smooth="yes"/>
      <point x="487" y="315" type="line"/>
      <point x="398" y="315" type="line"/>
      <point x="398" y="276" type="line" smooth="yes"/>
      <point x="398" y="214.667"/>
      <point x="386.167" y="188.333"/>
      <point x="349.5" y="163" type="curve" smooth="yes"/>
      <point x="331.167" y="150.333"/>
      <point x="296.667" y="133.333"/>
      <point x="246" y="112" type="curve" smooth="yes"/>
      <point x="149.797" y="73.086"/>
      <point x="91.879" y="42.02"/>
      <point x="63.5" y="-4" type="curve" smooth="yes"/>
      <point x="51.167" y="-24"/>
      <point x="45" y="-47.333"/>
      <point x="45" y="-74" type="curve" smooth="yes"/>
      <point x="45" y="-156.667"/>
      <point x="100" y="-203"/>
    </contour>
  </outline>
</glyph>
<glyph name="sadLamAlefMaksuraabove-ar" format="2">
  <unicode hex="06D6"/>
  <note>
uni06D6
</note>
  <anchor x="0" y="488" name="_top"/>
  <anchor x="0" y="488" name="_top2"/>
  <anchor x="3" y="861" name="top"/>
  <outline>
    <contour>
      <point x="-149" y="581" type="curve" smooth="yes"/>
      <point x="231" y="581" type="line"/>
      <point x="231" y="653" type="line" smooth="yes"/>
      <point x="231" y="723.667"/>
      <point x="200.333" y="755"/>
      <point x="139" y="755" type="curve" smooth="yes"/>
      <point x="93.667" y="755"/>
      <point x="57" y="733.333"/>
      <point x="29" y="690" type="curve"/>
      <point x="29" y="739" type="line"/>
      <point x="-5" y="739" type="line"/>
      <point x="-5" y="612" type="line"/>
      <point x="-61" y="612" type="line"/>
      <point x="-61" y="861" type="line"/>
      <point x="-97" y="861" type="line"/>
      <point x="-97" y="612" type="line"/>
      <point x="-145" y="612" type="line" smooth="yes"/>
      <point x="-193" y="612"/>
      <point x="-225" y="591"/>
      <point x="-225" y="547" type="curve" smooth="yes"/>
      <point x="-225" y="504.333"/>
      <point x="-199.667" y="485"/>
      <point x="-165" y="485" type="curve" smooth="yes"/>
      <point x="22" y="485" type="line"/>
      <point x="22" y="516" type="line"/>
      <point x="-165" y="516" type="line" smooth="yes"/>
      <point x="-181" y="516"/>
      <point x="-189" y="526.333"/>
      <point x="-189" y="547" type="curve" smooth="yes"/>
      <point x="-189" y="569.667"/>
      <point x="-175.667" y="581"/>
    </contour>
    <contour>
      <point x="197" y="612" type="line"/>
      <point x="29" y="612" type="line"/>
      <point x="29" y="646" type="line"/>
      <point x="65" y="706"/>
      <point x="93.333" y="723"/>
      <point x="132" y="723" type="curve" smooth="yes"/>
      <point x="176" y="723"/>
      <point x="197" y="701.333"/>
      <point x="197" y="652" type="curve" smooth="yes"/>
    </contour>
  </outline>
</glyph>
<glyph name="qafLamAlefMaksuraabove-ar" format="2">
  <unicode hex="06D7"/>
  <note>
uni06D7
</note>
  <anchor x="20" y="488" name="_top"/>
  <anchor x="20" y="488" name="_top2"/>
  <anchor x="3" y="861" name="top"/>
  <outline>
    <contour>
      <point x="60" y="612" type="curve"/>
      <point x="-31" y="612" type="line"/>
      <point x="-31" y="861" type="line"/>
      <point x="-67" y="861" type="line"/>
      <point x="-67" y="612" type="line"/>
      <point x="-115" y="612" type="line" smooth="yes"/>
      <point x="-163" y="612"/>
      <point x="-195" y="591"/>
      <point x="-195" y="547" type="curve" smooth="yes"/>
      <point x="-195" y="504.333"/>
      <point x="-169.667" y="485"/>
      <point x="-135" y="485" type="curve" smooth="yes"/>
      <point x="52" y="485" type="line"/>
      <point x="52" y="516" type="line"/>
      <point x="-135" y="516" type="line" smooth="yes"/>
      <point x="-151" y="516"/>
      <point x="-159" y="526.333"/>
      <point x="-159" y="547" type="curve" smooth="yes"/>
      <point x="-159" y="569.667"/>
      <point x="-145.667" y="581"/>
      <point x="-119" y="581" type="curve" smooth="yes"/>
      <point x="201" y="581" type="line"/>
      <point x="201" y="775" type="line"/>
      <point x="149" y="775" type="line" smooth="yes"/>
      <point x="83.667" y="775"/>
      <point x="39" y="737"/>
      <point x="39" y="673" type="curve" smooth="yes"/>
      <point x="39" y="650.333"/>
      <point x="46.667" y="626.667"/>
    </contour>
    <contour>
      <point x="167" y="612" type="line"/>
      <point x="129" y="612" type="line" smooth="yes"/>
      <point x="93" y="612"/>
      <point x="75" y="632.333"/>
      <point x="75" y="673" type="curve" smooth="yes"/>
      <point x="75" y="719.667"/>
      <point x="103.333" y="744"/>
      <point x="150" y="744" type="curve" smooth="yes"/>
      <point x="167" y="744" type="line"/>
    </contour>
    <contour>
      <point x="101" y="813" type="curve" smooth="yes"/>
      <point x="113" y="813"/>
      <point x="123" y="819.667"/>
      <point x="123" y="837" type="curve" smooth="yes"/>
      <point x="123" y="854.333"/>
      <point x="113" y="861"/>
      <point x="101" y="861" type="curve" smooth="yes"/>
      <point x="85.667" y="861"/>
      <point x="78" y="853"/>
      <point x="78" y="837" type="curve" smooth="yes"/>
      <point x="78" y="821"/>
      <point x="85.667" y="813"/>
    </contour>
    <contour>
      <point x="170" y="813" type="curve" smooth="yes"/>
      <point x="184.667" y="813"/>
      <point x="192" y="821"/>
      <point x="192" y="837" type="curve" smooth="yes"/>
      <point x="192" y="853"/>
      <point x="184.667" y="861"/>
      <point x="170" y="861" type="curve" smooth="yes"/>
      <point x="154.667" y="861"/>
      <point x="147" y="853"/>
      <point x="147" y="837" type="curve" smooth="yes"/>
      <point x="147" y="821"/>
      <point x="154.667" y="813"/>
    </contour>
  </outline>
</glyph>
<glyph name="meemabove-ar" format="2">
  <unicode hex="06D8"/>
  <note>
uni06D8
</note>
  <anchor x="0" y="479" name="_top"/>
  <anchor x="0" y="479" name="_top2"/>
  <anchor x="2" y="675" name="top"/>
  <outline>
    <contour>
      <point x="-100" y="485" type="curve" smooth="yes"/>
      <point x="14" y="485" type="line" smooth="yes"/>
      <point x="68.667" y="485"/>
      <point x="105" y="525.667"/>
      <point x="105" y="587" type="curve" smooth="yes"/>
      <point x="105" y="640.333"/>
      <point x="74" y="675"/>
      <point x="22" y="675" type="curve" smooth="yes"/>
      <point x="-6.667" y="675"/>
      <point x="-31" y="666.333"/>
      <point x="-51" y="649" type="curve"/>
      <point x="-61" y="629"/>
      <point x="-66" y="607.667"/>
      <point x="-66" y="585" type="curve" smooth="yes"/>
      <point x="-66" y="563"/>
      <point x="-60.667" y="540.333"/>
      <point x="-50" y="517" type="curve"/>
      <point x="-100" y="517" type="line" smooth="yes"/>
      <point x="-101.333" y="517"/>
      <point x="-102" y="516.333"/>
      <point x="-102" y="515" type="curve" smooth="yes"/>
      <point x="-102" y="487" type="line" smooth="yes"/>
      <point x="-102" y="485.667"/>
      <point x="-101.333" y="485"/>
    </contour>
    <contour>
      <point x="-30" y="592" type="curve" smooth="yes"/>
      <point x="-30" y="606.667"/>
      <point x="-28.333" y="618.667"/>
      <point x="-25" y="628" type="curve"/>
      <point x="-10.333" y="639.333"/>
      <point x="5.333" y="645"/>
      <point x="22" y="645" type="curve" smooth="yes"/>
      <point x="48.667" y="645"/>
      <point x="69" y="619"/>
      <point x="69" y="587" type="curve" smooth="yes"/>
      <point x="69" y="540.333"/>
      <point x="50.667" y="517"/>
      <point x="14" y="517" type="curve" smooth="yes"/>
      <point x="-15" y="517" type="line"/>
      <point x="-25" y="541.667"/>
      <point x="-30" y="566.667"/>
    </contour>
  </outline>
</glyph>
<glyph name="lamAlefabove-ar" format="2">
  <unicode hex="06D9"/>
  <note>
uni06D9
</note>
  <anchor x="15" y="479" name="_top"/>
  <anchor x="15" y="479" name="_top2"/>
  <anchor x="5" y="789" name="top"/>
  <outline>
    <contour>
      <point x="-103" y="516" type="line"/>
      <point x="-103" y="485" type="line"/>
      <point x="38" y="485" type="line" smooth="yes"/>
      <point x="84.667" y="485"/>
      <point x="112" y="515.333"/>
      <point x="112" y="558" type="curve" smooth="yes"/>
      <point x="112" y="789" type="line"/>
      <point x="77" y="789" type="line"/>
      <point x="77" y="563" type="line" smooth="yes"/>
      <point x="77" y="531.667"/>
      <point x="62.667" y="516"/>
      <point x="34" y="516" type="curve" smooth="yes"/>
      <point x="23" y="516" type="line"/>
      <point x="-28" y="735" type="line"/>
      <point x="-65" y="735" type="line"/>
      <point x="-14" y="516" type="line"/>
    </contour>
  </outline>
</glyph>
<glyph name="jeemabove-ar" format="2">
  <unicode hex="06DA"/>
  <note>
uni06DA
</note>
  <anchor x="20" y="488" name="_top"/>
  <anchor x="20" y="488" name="_top2"/>
  <anchor x="18" y="811" name="top"/>
  <outline>
    <contour>
      <point x="104" y="618" type="curve"/>
      <point x="125" y="646" type="line"/>
      <point x="104.333" y="659.333"/>
      <point x="91" y="686.333"/>
      <point x="85" y="727" type="curve" smooth="yes"/>
      <point x="76.333" y="783"/>
      <point x="46.667" y="811"/>
      <point x="-4" y="811" type="curve" smooth="yes"/>
      <point x="-30.667" y="811"/>
      <point x="-65" y="802.667"/>
      <point x="-89" y="788" type="curve"/>
      <point x="-75" y="760" type="line"/>
      <point x="-50.333" y="773.333"/>
      <point x="-27" y="780"/>
      <point x="-5" y="780" type="curve" smooth="yes"/>
      <point x="27" y="780"/>
      <point x="46.667" y="759.333"/>
      <point x="54" y="718" type="curve" smooth="yes"/>
      <point x="61" y="682" type="line"/>
      <point x="-49.667" y="648.667"/>
      <point x="-89" y="612.667"/>
      <point x="-89" y="562" type="curve" smooth="yes"/>
      <point x="-89" y="511.333"/>
      <point x="-55.333" y="485"/>
      <point x="-6" y="485" type="curve" smooth="yes"/>
      <point x="17.333" y="485"/>
      <point x="43.333" y="488"/>
      <point x="72" y="494" type="curve"/>
      <point x="68" y="522" type="line"/>
      <point x="45.333" y="518"/>
      <point x="25.667" y="516"/>
      <point x="9" y="516" type="curve" smooth="yes"/>
      <point x="-31" y="516"/>
      <point x="-52" y="530.333"/>
      <point x="-52" y="565" type="curve" smooth="yes"/>
      <point x="-52" y="611"/>
      <point x="7" y="635"/>
      <point x="72" y="653" type="curve"/>
      <point x="77" y="643"/>
      <point x="88" y="631"/>
    </contour>
    <contour>
      <point x="13" y="545" type="curve" smooth="yes"/>
      <point x="25" y="545"/>
      <point x="36" y="551.667"/>
      <point x="36" y="569" type="curve" smooth="yes"/>
      <point x="36" y="586.333"/>
      <point x="25" y="593"/>
      <point x="13" y="593" type="curve" smooth="yes"/>
      <point x="-1.667" y="593"/>
      <point x="-9" y="585"/>
      <point x="-9" y="569" type="curve" smooth="yes"/>
      <point x="-9" y="553"/>
      <point x="-1.667" y="545"/>
    </contour>
  </outline>
</glyph>
<glyph name="seenabove-ar" format="2">
  <unicode hex="06DC"/>
  <note>
uni06DC
</note>
  <anchor x="39" y="488" name="_top"/>
  <anchor x="39" y="488" name="_top2"/>
  <outline>
    <contour>
      <point x="184" y="581" type="curve" smooth="yes"/>
      <point x="242" y="581" type="line"/>
      <point x="242" y="775" type="line"/>
      <point x="208" y="775" type="line"/>
      <point x="208" y="613" type="line"/>
      <point x="184" y="613" type="line" smooth="yes"/>
      <point x="157.333" y="613"/>
      <point x="142.667" y="623"/>
      <point x="132" y="643" type="curve"/>
      <point x="132" y="647"/>
      <point x="132" y="652"/>
      <point x="132" y="656" type="curve"/>
      <point x="132" y="744" type="line"/>
      <point x="98" y="744" type="line"/>
      <point x="98" y="659" type="line" smooth="yes"/>
      <point x="98" y="632.333"/>
      <point x="84.667" y="613"/>
      <point x="58" y="613" type="curve" smooth="yes"/>
      <point x="14" y="613" type="line"/>
      <point x="14" y="744" type="line"/>
      <point x="-20" y="744" type="line"/>
      <point x="-20" y="580" type="line" smooth="yes"/>
      <point x="-20" y="537.333"/>
      <point x="-40.333" y="517"/>
      <point x="-87" y="517" type="curve" smooth="yes"/>
      <point x="-106" y="517" type="line" smooth="yes"/>
      <point x="-142" y="517"/>
      <point x="-158" y="545.333"/>
      <point x="-158" y="588" type="curve" smooth="yes"/>
      <point x="-158" y="628.667"/>
      <point x="-153.667" y="660"/>
      <point x="-145" y="682" type="curve"/>
      <point x="-178" y="682" type="line"/>
      <point x="-188.667" y="656.667"/>
      <point x="-194" y="625.333"/>
      <point x="-194" y="588" type="curve" smooth="yes"/>
      <point x="-194" y="521.333"/>
      <point x="-162" y="485"/>
      <point x="-114" y="485" type="curve" smooth="yes"/>
      <point x="-85" y="485" type="line" smooth="yes"/>
      <point x="-19" y="485"/>
      <point x="14" y="517"/>
      <point x="14" y="581" type="curve"/>
      <point x="61" y="581" type="line" smooth="yes"/>
      <point x="86.333" y="581"/>
      <point x="105.667" y="590.333"/>
      <point x="119" y="609" type="curve"/>
      <point x="136.333" y="590.333"/>
      <point x="158" y="581"/>
    </contour>
  </outline>
</glyph>
<glyph name="endofayah-ar" format="2">
  <advance width="1123"/>
  <unicode hex="06DD"/>
  <note>
uni06DD
</note>
  <outline>
    <contour>
      <point x="1099" y="349" type="curve" smooth="yes"/>
      <point x="1099" y="506.333"/>
      <point x="1029.333" y="656"/>
      <point x="912" y="756" type="curve"/>
      <point x="913" y="770" type="line" smooth="yes"/>
      <point x="913" y="806"/>
      <point x="884" y="834"/>
      <point x="848" y="834" type="curve" smooth="yes"/>
      <point x="835.333" y="834"/>
      <point x="823.333" y="830.667"/>
      <point x="812" y="824" type="curve"/>
      <point x="734" y="865.333"/>
      <point x="650.667" y="886"/>
      <point x="562" y="886" type="curve" smooth="yes"/>
      <point x="472.667" y="886"/>
      <point x="389" y="865.333"/>
      <point x="311" y="824" type="curve"/>
      <point x="299.667" y="830.667"/>
      <point x="287.667" y="834"/>
      <point x="275" y="834" type="curve" smooth="yes"/>
      <point x="239" y="834"/>
      <point x="210" y="806"/>
      <point x="210" y="770" type="curve" smooth="yes"/>
      <point x="211" y="756" type="line"/>
      <point x="95" y="656"/>
      <point x="24" y="507.667"/>
      <point x="24" y="349" type="curve" smooth="yes"/>
      <point x="24" y="269"/>
      <point x="41" y="193.333"/>
      <point x="75" y="122" type="curve" smooth="yes"/>
      <point x="107.667" y="52"/>
      <point x="153" y="-8"/>
      <point x="211" y="-58" type="curve"/>
      <point x="210" y="-72" type="line" smooth="yes"/>
      <point x="210" y="-108"/>
      <point x="239" y="-137"/>
      <point x="275" y="-137" type="curve" smooth="yes"/>
      <point x="287.667" y="-137"/>
      <point x="299.667" y="-133.333"/>
      <point x="311" y="-126" type="curve"/>
      <point x="389" y="-167.333"/>
      <point x="472.333" y="-188"/>
      <point x="561" y="-188" type="curve" smooth="yes"/>
      <point x="650.333" y="-188"/>
      <point x="734" y="-167.333"/>
      <point x="812" y="-126" type="curve"/>
      <point x="823.333" y="-133.333"/>
      <point x="835.333" y="-137"/>
      <point x="848" y="-137" type="curve" smooth="yes"/>
      <point x="884" y="-137"/>
      <point x="913" y="-108"/>
      <point x="913" y="-72" type="curve" smooth="yes"/>
      <point x="912" y="-58" type="line"/>
      <point x="1025.333" y="39.333"/>
      <point x="1099" y="189"/>
    </contour>
    <contour>
      <point x="887" y="770" type="curve" smooth="yes"/>
      <point x="887" y="748.667"/>
      <point x="869" y="731"/>
      <point x="849" y="731" type="curve" smooth="yes"/>
      <point x="827.667" y="731"/>
      <point x="810" y="748.667"/>
      <point x="810" y="770" type="curve" smooth="yes"/>
      <point x="810" y="790"/>
      <point x="827.667" y="808"/>
      <point x="849" y="808" type="curve" smooth="yes"/>
      <point x="869" y="808"/>
      <point x="887" y="791.333"/>
    </contour>
    <contour>
      <point x="782" y="779" type="curve"/>
      <point x="341" y="779" type="line"/>
      <point x="409.667" y="814.333"/>
      <point x="483.333" y="832"/>
      <point x="562" y="832" type="curve" smooth="yes"/>
      <point x="640" y="832"/>
      <point x="713.333" y="814.333"/>
    </contour>
    <contour>
      <point x="313" y="770" type="curve" smooth="yes"/>
      <point x="313" y="748.667"/>
      <point x="296.667" y="731"/>
      <point x="274" y="731" type="curve" smooth="yes"/>
      <point x="254" y="731"/>
      <point x="236" y="748.667"/>
      <point x="236" y="770" type="curve" smooth="yes"/>
      <point x="236" y="791.333"/>
      <point x="254" y="808"/>
      <point x="274" y="808" type="curve" smooth="yes"/>
      <point x="295.333" y="808"/>
      <point x="313" y="790"/>
    </contour>
    <contour>
      <point x="1045" y="349" type="curve" smooth="yes"/>
      <point x="1045" y="202.333"/>
      <point x="989.667" y="81"/>
      <point x="879" y="-15" type="curve"/>
      <point x="869.667" y="-9.667"/>
      <point x="859.333" y="-7"/>
      <point x="848" y="-7" type="curve" smooth="yes"/>
      <point x="830" y="-7"/>
      <point x="814.667" y="-13.667"/>
      <point x="802" y="-27" type="curve"/>
      <point x="321" y="-27" type="line"/>
      <point x="308.333" y="-13.667"/>
      <point x="293" y="-7"/>
      <point x="275" y="-7" type="curve" smooth="yes"/>
      <point x="263.667" y="-7"/>
      <point x="253.333" y="-9.667"/>
      <point x="244" y="-15" type="curve"/>
      <point x="133.333" y="81"/>
      <point x="78" y="202.333"/>
      <point x="78" y="349" type="curve" smooth="yes"/>
      <point x="76.667" y="486.333"/>
      <point x="140" y="622.333"/>
      <point x="244" y="713" type="curve"/>
      <point x="253.333" y="707.667"/>
      <point x="263.667" y="705"/>
      <point x="275" y="705" type="curve" smooth="yes"/>
      <point x="293" y="705"/>
      <point x="308.333" y="711.667"/>
      <point x="321" y="725" type="curve"/>
      <point x="802" y="725" type="line"/>
      <point x="814.667" y="711.667"/>
      <point x="830" y="705"/>
      <point x="848" y="705" type="curve" smooth="yes"/>
      <point x="859.333" y="705"/>
      <point x="869.667" y="707.667"/>
      <point x="879" y="713" type="curve"/>
      <point x="981.667" y="623.667"/>
      <point x="1045" y="491.667"/>
    </contour>
    <contour>
      <point x="887" y="-72" type="curve" smooth="yes"/>
      <point x="887" y="-93.333"/>
      <point x="869" y="-110"/>
      <point x="849" y="-110" type="curve" smooth="yes"/>
      <point x="827.667" y="-110"/>
      <point x="810" y="-92"/>
      <point x="810" y="-72" type="curve" smooth="yes"/>
      <point x="810" y="-50.667"/>
      <point x="827.667" y="-34"/>
      <point x="849" y="-34" type="curve" smooth="yes"/>
      <point x="869" y="-34"/>
      <point x="887" y="-50.667"/>
    </contour>
    <contour>
      <point x="782" y="-81" type="line"/>
      <point x="713.333" y="-116.333"/>
      <point x="640" y="-134"/>
      <point x="562" y="-134" type="curve" smooth="yes"/>
      <point x="483.333" y="-134"/>
      <point x="409.667" y="-116.333"/>
      <point x="341" y="-81" type="curve"/>
    </contour>
    <contour>
      <point x="313" y="-72" type="curve" smooth="yes"/>
      <point x="313" y="-92"/>
      <point x="295.333" y="-110"/>
      <point x="274" y="-110" type="curve" smooth="yes"/>
      <point x="254" y="-110"/>
      <point x="236" y="-93.333"/>
      <point x="236" y="-72" type="curve" smooth="yes"/>
      <point x="236" y="-50.667"/>
      <point x="254" y="-34"/>
      <point x="274" y="-34" type="curve" smooth="yes"/>
      <point x="296.667" y="-34"/>
      <point x="313" y="-50.667"/>
    </contour>
  </outline>
</glyph>
<glyph name="hahabove-ar" format="2">
  <unicode hex="06E1"/>
  <note>
uni06E1
</note>
  <anchor x="0" y="479" name="_top"/>
  <anchor x="0" y="479" name="_top2"/>
  <anchor x="-3" y="683" name="top"/>
  <outline>
    <contour>
      <point x="-106" y="485" type="curve" smooth="yes"/>
      <point x="102" y="485" type="line"/>
      <point x="102" y="516" type="line"/>
      <point x="89.333" y="527.333"/>
      <point x="79.333" y="555"/>
      <point x="72" y="599" type="curve" smooth="yes"/>
      <point x="64" y="659"/>
      <point x="39" y="683"/>
      <point x="-9" y="683" type="curve" smooth="yes"/>
      <point x="-35.667" y="683"/>
      <point x="-60" y="676.667"/>
      <point x="-82" y="664" type="curve"/>
      <point x="-68" y="636" type="line"/>
      <point x="-47.333" y="646.667"/>
      <point x="-28" y="652"/>
      <point x="-10" y="652" type="curve" smooth="yes"/>
      <point x="20.667" y="652"/>
      <point x="33" y="636.667"/>
      <point x="41" y="590" type="curve" smooth="yes"/>
      <point x="48" y="552"/>
      <point x="55" y="529"/>
      <point x="65" y="518" type="curve"/>
      <point x="65" y="517" type="line"/>
      <point x="-106" y="517" type="line" smooth="yes"/>
      <point x="-107.333" y="517"/>
      <point x="-108" y="516.333"/>
      <point x="-108" y="515" type="curve" smooth="yes"/>
      <point x="-108" y="487" type="line" smooth="yes"/>
      <point x="-108" y="485.667"/>
      <point x="-107.333" y="485"/>
    </contour>
  </outline>
</glyph>
<glyph name="meemStopabove-ar" format="2">
  <unicode hex="06E2"/>
  <note>
uni06E2
</note>
  <anchor x="0" y="488" name="_top"/>
  <anchor x="0" y="488" name="_top2"/>
  <anchor x="8" y="803" name="top"/>
  <outline>
    <contour>
      <point x="-96" y="590" type="curve" smooth="yes"/>
      <point x="-96" y="485" type="line"/>
      <point x="-63" y="485" type="line"/>
      <point x="-63" y="584" type="line" smooth="yes"/>
      <point x="-63" y="603.333"/>
      <point x="-53.333" y="613"/>
      <point x="-34" y="613" type="curve" smooth="yes"/>
      <point x="20" y="613" type="line" smooth="yes"/>
      <point x="74.667" y="613"/>
      <point x="111" y="652.333"/>
      <point x="111" y="715" type="curve" smooth="yes"/>
      <point x="111" y="769.667"/>
      <point x="77.333" y="803"/>
      <point x="28" y="803" type="curve" smooth="yes"/>
      <point x="0" y="803"/>
      <point x="-24.333" y="794.333"/>
      <point x="-45" y="777" type="curve"/>
      <point x="-55" y="757"/>
      <point x="-60" y="735.667"/>
      <point x="-60" y="713" type="curve" smooth="yes"/>
      <point x="-60" y="691"/>
      <point x="-54.667" y="668.333"/>
      <point x="-44" y="645" type="curve"/>
      <point x="-77" y="645"/>
      <point x="-96" y="625"/>
    </contour>
    <contour>
      <point x="-24" y="720" type="curve" smooth="yes"/>
      <point x="-24" y="734.667"/>
      <point x="-22.333" y="746.667"/>
      <point x="-19" y="756" type="curve"/>
      <point x="-5" y="767.333"/>
      <point x="10.667" y="773"/>
      <point x="28" y="773" type="curve" smooth="yes"/>
      <point x="53.333" y="773"/>
      <point x="75" y="749.667"/>
      <point x="75" y="715" type="curve" smooth="yes"/>
      <point x="75" y="675"/>
      <point x="60" y="645"/>
      <point x="20" y="645" type="curve" smooth="yes"/>
      <point x="-9" y="645" type="line"/>
      <point x="-19" y="670.333"/>
      <point x="-24" y="695.333"/>
    </contour>
  </outline>
</glyph>
<glyph name="seenbelow-ar" format="2">
  <unicode hex="06E3"/>
  <note>
uni06E3
</note>
  <anchor x="29" y="20" name="_bottom"/>
  <anchor x="29" y="20" name="_bottom2"/>
  <anchor x="0" y="-264" name="bottom"/>
  <outline>
    <contour>
      <point x="184" y="-144" type="curve" smooth="yes"/>
      <point x="242" y="-144" type="line"/>
      <point x="242" y="50" type="line"/>
      <point x="208" y="50" type="line"/>
      <point x="208" y="-112" type="line"/>
      <point x="184" y="-112" type="line" smooth="yes"/>
      <point x="157.333" y="-112"/>
      <point x="142.667" y="-100.667"/>
      <point x="132" y="-82" type="curve"/>
      <point x="132" y="-77"/>
      <point x="132" y="-71"/>
      <point x="132" y="-66" type="curve"/>
      <point x="132" y="19" type="line"/>
      <point x="98" y="19" type="line"/>
      <point x="98" y="-66" type="line" smooth="yes"/>
      <point x="98" y="-91.333"/>
      <point x="84.667" y="-112"/>
      <point x="58" y="-112" type="curve" smooth="yes"/>
      <point x="14" y="-112" type="line"/>
      <point x="14" y="19" type="line"/>
      <point x="-20" y="19" type="line"/>
      <point x="-20" y="-145" type="line" smooth="yes"/>
      <point x="-20" y="-187.667"/>
      <point x="-40.333" y="-208"/>
      <point x="-87" y="-208" type="curve" smooth="yes"/>
      <point x="-106" y="-208" type="line" smooth="yes"/>
      <point x="-142" y="-208"/>
      <point x="-158" y="-179.667"/>
      <point x="-158" y="-137" type="curve" smooth="yes"/>
      <point x="-158" y="-97.667"/>
      <point x="-153.667" y="-66.333"/>
      <point x="-145" y="-43" type="curve"/>
      <point x="-178" y="-43" type="line"/>
      <point x="-188.667" y="-69"/>
      <point x="-194" y="-100.333"/>
      <point x="-194" y="-137" type="curve" smooth="yes"/>
      <point x="-194" y="-203.667"/>
      <point x="-162" y="-240"/>
      <point x="-114" y="-240" type="curve" smooth="yes"/>
      <point x="-85" y="-240" type="line" smooth="yes"/>
      <point x="-19" y="-240"/>
      <point x="14" y="-208"/>
      <point x="14" y="-144" type="curve"/>
      <point x="61" y="-144" type="line" smooth="yes"/>
      <point x="85" y="-144"/>
      <point x="104.333" y="-134.667"/>
      <point x="119" y="-116" type="curve"/>
      <point x="132.333" y="-129.333"/>
      <point x="150.667" y="-144"/>
    </contour>
  </outline>
</glyph>
<glyph name="maddalong-ar" format="2">
  <unicode hex="06E4"/>
  <note>
uni06E4
</note>
  <anchor x="0" y="566" name="_top"/>
  <anchor x="0" y="566" name="_top2"/>
  <anchor x="1" y="610" name="top"/>
  <outline>
    <contour>
      <point x="-62" y="568" type="curve"/>
      <point x="-44" y="568" type="line"/>
      <point x="-40" y="581.333"/>
      <point x="-35.667" y="586"/>
      <point x="-25" y="586" type="curve" smooth="yes"/>
      <point x="-20.333" y="586"/>
      <point x="-12" y="583.333"/>
      <point x="0" y="578" type="curve" smooth="yes"/>
      <point x="12" y="572"/>
      <point x="21.333" y="569"/>
      <point x="28" y="569" type="curve" smooth="yes"/>
      <point x="49.333" y="569"/>
      <point x="61.333" y="584.667"/>
      <point x="64" y="610" type="curve"/>
      <point x="46" y="610" type="line"/>
      <point x="42" y="596.667"/>
      <point x="38.667" y="592"/>
      <point x="28" y="592" type="curve" smooth="yes"/>
      <point x="24" y="592"/>
      <point x="15.667" y="595"/>
      <point x="3" y="601" type="curve" smooth="yes"/>
      <point x="-9" y="606.333"/>
      <point x="-18.333" y="609"/>
      <point x="-25" y="609" type="curve" smooth="yes"/>
      <point x="-46.333" y="609"/>
      <point x="-58.667" y="595.333"/>
    </contour>
  </outline>
</glyph>
<glyph name="wawSmall-ar" format="2">
  <advance width="205"/>
  <unicode hex="06E5"/>
  <note>
uni06E5
</note>
  <outline>
    <contour>
      <point x="92" y="485" type="curve" smooth="yes"/>
      <point x="153.333" y="485"/>
      <point x="185" y="518.667"/>
      <point x="185" y="572" type="curve" smooth="yes"/>
      <point x="185" y="775" type="line"/>
      <point x="132" y="775" type="line" smooth="yes"/>
      <point x="65.333" y="775"/>
      <point x="23" y="735.667"/>
      <point x="23" y="673" type="curve" smooth="yes"/>
      <point x="23" y="609"/>
      <point x="58.667" y="581"/>
      <point x="112" y="581" type="curve" smooth="yes"/>
      <point x="151" y="581" type="line"/>
      <point x="151" y="570" type="line" smooth="yes"/>
      <point x="151" y="538"/>
      <point x="130.333" y="517"/>
      <point x="93" y="517" type="curve" smooth="yes"/>
      <point x="72.333" y="517"/>
      <point x="53.333" y="522.333"/>
      <point x="36" y="533" type="curve"/>
      <point x="20" y="506" type="line"/>
      <point x="40" y="492"/>
      <point x="64" y="485"/>
    </contour>
    <contour>
      <point x="151" y="613" type="line"/>
      <point x="113" y="613" type="line" smooth="yes"/>
      <point x="75.667" y="613"/>
      <point x="58" y="630.333"/>
      <point x="58" y="673" type="curve" smooth="yes"/>
      <point x="58" y="715.667"/>
      <point x="82.333" y="744"/>
      <point x="133" y="744" type="curve" smooth="yes"/>
      <point x="151" y="744" type="line"/>
    </contour>
  </outline>
</glyph>
<glyph name="yehSmall-ar" format="2">
  <advance width="287"/>
  <unicode hex="06E6"/>
  <note>
uni06E6
</note>
  <outline>
    <contour>
      <point x="80" y="485" type="curve" smooth="yes"/>
      <point x="267" y="485" type="line"/>
      <point x="267" y="517" type="line"/>
      <point x="80" y="517" type="line" smooth="yes"/>
      <point x="66.667" y="517"/>
      <point x="56" y="523.667"/>
      <point x="56" y="537" type="curve" smooth="yes"/>
      <point x="56" y="547"/>
      <point x="59.833" y="555.167"/>
      <point x="67.5" y="561.5" type="curve" smooth="yes"/>
      <point x="75.167" y="567.833"/>
      <point x="93" y="576.667"/>
      <point x="121" y="588" type="curve" smooth="yes"/>
      <point x="176.975" y="611.568"/>
      <point x="197" y="628.395"/>
      <point x="197" y="677" type="curve" smooth="yes"/>
      <point x="197" y="693" type="line"/>
      <point x="161" y="693" type="line"/>
      <point x="161" y="677" type="line" smooth="yes"/>
      <point x="161" y="642.333"/>
      <point x="154.667" y="633.667"/>
      <point x="100" y="611" type="curve" smooth="yes"/>
      <point x="36" y="585.667"/>
      <point x="20" y="567.667"/>
      <point x="20" y="537" type="curve" smooth="yes"/>
      <point x="20" y="501"/>
      <point x="45.333" y="485"/>
    </contour>
  </outline>
</glyph>
<glyph name="noonabove-ar" format="2">
  <unicode hex="06E8"/>
  <note>
uni06E8
</note>
  <anchor x="15" y="479" name="_top"/>
  <anchor x="15" y="479" name="_top2"/>
  <anchor x="9" y="823" name="top"/>
  <outline>
    <contour>
      <point x="-15" y="485" type="curve" smooth="yes"/>
      <point x="14" y="485" type="line" smooth="yes"/>
      <point x="83.333" y="485"/>
      <point x="113" y="519"/>
      <point x="113" y="583" type="curve" smooth="yes"/>
      <point x="113" y="775" type="line"/>
      <point x="79" y="775" type="line"/>
      <point x="79" y="580" type="line" smooth="yes"/>
      <point x="79" y="537.333"/>
      <point x="58.667" y="517"/>
      <point x="12" y="517" type="curve" smooth="yes"/>
      <point x="-7" y="517" type="line" smooth="yes"/>
      <point x="-41.667" y="517"/>
      <point x="-59" y="539.333"/>
      <point x="-59" y="584" type="curve" smooth="yes"/>
      <point x="-59" y="619.333"/>
      <point x="-54.667" y="648"/>
      <point x="-46" y="670" type="curve"/>
      <point x="-79" y="670" type="line"/>
      <point x="-89.667" y="642.667"/>
      <point x="-95" y="613.333"/>
      <point x="-95" y="582" type="curve" smooth="yes"/>
      <point x="-95" y="519.333"/>
      <point x="-63" y="485"/>
    </contour>
    <contour>
      <point x="10" y="775" type="curve" smooth="yes"/>
      <point x="22" y="775"/>
      <point x="32" y="783"/>
      <point x="32" y="799" type="curve" smooth="yes"/>
      <point x="32" y="816.333"/>
      <point x="22" y="823"/>
      <point x="10" y="823" type="curve" smooth="yes"/>
      <point x="-5.333" y="823"/>
      <point x="-13" y="815"/>
      <point x="-13" y="799" type="curve" smooth="yes"/>
      <point x="-13" y="783"/>
      <point x="-3.333" y="775"/>
    </contour>
  </outline>
</glyph>
<glyph name="meembelow-ar" format="2">
  <unicode hex="06ED"/>
  <note>
uni06ED
</note>
  <anchor x="0" y="-49" name="_bottom"/>
  <anchor x="0" y="-49" name="_bottom2"/>
  <anchor x="0" y="-381" name="bottom"/>
  <outline>
    <contour>
      <point x="-96" y="-263" type="curve" smooth="yes"/>
      <point x="-96" y="-368" type="line"/>
      <point x="-63" y="-368" type="line"/>
      <point x="-63" y="-269" type="line" smooth="yes"/>
      <point x="-63" y="-249.667"/>
      <point x="-53.333" y="-240"/>
      <point x="-34" y="-240" type="curve" smooth="yes"/>
      <point x="20" y="-240" type="line" smooth="yes"/>
      <point x="74.667" y="-240"/>
      <point x="111" y="-200.667"/>
      <point x="111" y="-138" type="curve" smooth="yes"/>
      <point x="111" y="-83.333"/>
      <point x="77.333" y="-50"/>
      <point x="28" y="-50" type="curve" smooth="yes"/>
      <point x="0" y="-50"/>
      <point x="-24.333" y="-58.667"/>
      <point x="-45" y="-76" type="curve"/>
      <point x="-55" y="-96"/>
      <point x="-60" y="-117.333"/>
      <point x="-60" y="-140" type="curve" smooth="yes"/>
      <point x="-60" y="-160.667"/>
      <point x="-54.667" y="-183.333"/>
      <point x="-44" y="-208" type="curve"/>
      <point x="-77" y="-208"/>
      <point x="-96" y="-228"/>
    </contour>
    <contour>
      <point x="-24" y="-133" type="curve" smooth="yes"/>
      <point x="-24" y="-118.333"/>
      <point x="-22.333" y="-106.333"/>
      <point x="-19" y="-97" type="curve"/>
      <point x="-5" y="-85.667"/>
      <point x="10.667" y="-80"/>
      <point x="28" y="-80" type="curve" smooth="yes"/>
      <point x="53.333" y="-80"/>
      <point x="75" y="-103.333"/>
      <point x="75" y="-138" type="curve" smooth="yes"/>
      <point x="75" y="-178"/>
      <point x="60" y="-208"/>
      <point x="20" y="-208" type="curve" smooth="yes"/>
      <point x="-9" y="-208" type="line"/>
      <point x="-19" y="-181.333"/>
      <point x="-24" y="-156.333"/>
    </contour>
  </outline>
</glyph>
<glyph name="four-persian" format="2">
  <advance width="563"/>
  <unicode hex="06F4"/>
  <note>
uni06F4
</note>
  <outline>
    <contour>
      <point x="45" y="674" type="line"/>
      <point x="258" y="0" type="line"/>
      <point x="353" y="0" type="line"/>
      <point x="195" y="483" type="line"/>
      <point x="245.667" y="460.333"/>
      <point x="297.667" y="453"/>
      <point x="359" y="453" type="curve" smooth="yes"/>
      <point x="475" y="453"/>
      <point x="533" y="512.667"/>
      <point x="533" y="632" type="curve" smooth="yes"/>
      <point x="533" y="644" type="line"/>
      <point x="450" y="644" type="line"/>
      <point x="450" y="575.333"/>
      <point x="422.667" y="536.333"/>
      <point x="368" y="527" type="curve"/>
      <point x="326.667" y="538.333"/>
      <point x="306" y="562.333"/>
      <point x="306" y="599" type="curve" smooth="yes"/>
      <point x="306" y="631"/>
      <point x="323" y="642"/>
      <point x="343" y="642" type="curve" smooth="yes"/>
      <point x="358.333" y="642"/>
      <point x="372.333" y="639.667"/>
      <point x="385" y="635" type="curve"/>
      <point x="399" y="690" type="line"/>
      <point x="383" y="696.667"/>
      <point x="363" y="700"/>
      <point x="339" y="700" type="curve" smooth="yes"/>
      <point x="273.667" y="700"/>
      <point x="237" y="665.667"/>
      <point x="237" y="611" type="curve" smooth="yes"/>
      <point x="237" y="573.667"/>
      <point x="250.333" y="546.667"/>
      <point x="277" y="530" type="curve"/>
      <point x="227.667" y="542"/>
      <point x="192.667" y="553"/>
      <point x="172" y="563" type="curve"/>
      <point x="140" y="674" type="line"/>
    </contour>
  </outline>
</glyph>
<glyph name="five-persian" format="2">
  <advance width="597"/>
  <unicode hex="06F5"/>
  <note>
uni06F5
</note>
  <outline>
    <contour>
      <point x="207" y="-7" type="curve" smooth="yes"/>
      <point x="245.667" y="-7"/>
      <point x="281" y="15.333"/>
      <point x="297" y="50" type="curve"/>
      <point x="315.667" y="15.333"/>
      <point x="352.333" y="-7"/>
      <point x="391" y="-7" type="curve" smooth="yes"/>
      <point x="489.667" y="-7"/>
      <point x="532" y="70"/>
      <point x="532" y="230" type="curve" smooth="yes"/>
      <point x="532" y="379.333"/>
      <point x="486.667" y="539.5"/>
      <point x="416" y="621.5" type="curve" smooth="yes"/>
      <point x="380.667" y="662.5"/>
      <point x="342" y="683"/>
      <point x="300" y="683" type="curve" smooth="yes"/>
      <point x="217.333" y="683"/>
      <point x="142" y="598.167"/>
      <point x="98" y="453.5" type="curve" smooth="yes"/>
      <point x="76" y="381.167"/>
      <point x="65" y="306.667"/>
      <point x="65" y="230" type="curve" smooth="yes"/>
      <point x="65" y="71.333"/>
      <point x="111" y="-7"/>
    </contour>
    <contour>
      <point x="220" y="71" type="curve" smooth="yes"/>
      <point x="167" y="71"/>
      <point x="157" y="148"/>
      <point x="157" y="232" type="curve" smooth="yes"/>
      <point x="157" y="354.667"/>
      <point x="188.5" y="488"/>
      <point x="230.5" y="556" type="curve" smooth="yes"/>
      <point x="251.5" y="590"/>
      <point x="274" y="607"/>
      <point x="298" y="607" type="curve" smooth="yes"/>
      <point x="354.359" y="607"/>
      <point x="397.032" y="524.355"/>
      <point x="420" y="421" type="curve" smooth="yes"/>
      <point x="433.333" y="361"/>
      <point x="440" y="298"/>
      <point x="440" y="232" type="curve" smooth="yes"/>
      <point x="440" y="155"/>
      <point x="432" y="71"/>
      <point x="380" y="71" type="curve" smooth="yes"/>
      <point x="349.333" y="71"/>
      <point x="333" y="99.333"/>
      <point x="331" y="156" type="curve"/>
      <point x="267" y="156" type="line"/>
      <point x="265" y="99.333"/>
      <point x="249.333" y="71"/>
    </contour>
  </outline>
</glyph>
<glyph name="Ghunna_above" format="2">
  <note>
Ghunna_above
</note>
  <outline>
    <contour>
      <point x="-25" y="900" type="line"/>
      <point x="-25" y="737" type="line"/>
      <point x="14" y="737" type="line"/>
      <point x="14" y="900" type="line"/>
    </contour>
    <contour>
      <point x="-32" y="583" type="curve" smooth="yes"/>
      <point x="-9" y="583" type="line" smooth="yes"/>
      <point x="69.667" y="583"/>
      <point x="105" y="620.667"/>
      <point x="105" y="694" type="curve" smooth="yes"/>
      <point x="105" y="796" type="line"/>
      <point x="66" y="796" type="line"/>
      <point x="66" y="691" type="line" smooth="yes"/>
      <point x="66" y="643"/>
      <point x="42.333" y="619"/>
      <point x="-11" y="619" type="curve" smooth="yes"/>
      <point x="-23" y="619" type="line" smooth="yes"/>
      <point x="-63" y="619"/>
      <point x="-83" y="644.667"/>
      <point x="-83" y="696" type="curve" smooth="yes"/>
      <point x="-83" y="735.333"/>
      <point x="-77.667" y="768.333"/>
      <point x="-67" y="795" type="curve"/>
      <point x="-106" y="795" type="line"/>
      <point x="-118" y="765"/>
      <point x="-124" y="731"/>
      <point x="-124" y="693" type="curve" smooth="yes"/>
      <point x="-124" y="622.333"/>
      <point x="-88" y="583"/>
    </contour>
  </outline>
</glyph>
<glyph name="ain-ar.fina" format="2">
  <advance width="614"/>
  <note>
uni0639.fina
</note>
  <anchor x="195" y="-381" name="bottom"/>
  <anchor x="293" y="586" name="top"/>
  <outline>
    <contour>
      <point x="94" y="-128" type="curve" smooth="yes"/>
      <point x="94" y="-249.333"/>
      <point x="172.667" y="-321"/>
      <point x="302" y="-321" type="curve" smooth="yes"/>
      <point x="360.667" y="-321"/>
      <point x="400" y="-317"/>
      <point x="496" y="-297" type="curve"/>
      <point x="485" y="-228" type="line"/>
      <point x="438.333" y="-236"/>
      <point x="390" y="-244"/>
      <point x="338" y="-244" type="curve" smooth="yes"/>
      <point x="232.667" y="-244"/>
      <point x="185" y="-205.333"/>
      <point x="185" y="-120" type="curve" smooth="yes"/>
      <point x="185" y="-60"/>
      <point x="219.333" y="-7"/>
      <point x="314" y="53" type="curve"/>
      <point x="370" y="22.333"/>
      <point x="451.333" y="0"/>
      <point x="502" y="0" type="curve" smooth="yes"/>
      <point x="619" y="0" type="line" smooth="yes"/>
      <point x="622.333" y="0"/>
      <point x="624" y="1.667"/>
      <point x="624" y="5" type="curve" smooth="yes"/>
      <point x="624" y="74" type="line" smooth="yes"/>
      <point x="624" y="76.667"/>
      <point x="622.333" y="78"/>
      <point x="619" y="78" type="curve" smooth="yes"/>
      <point x="498" y="78" type="line" smooth="yes"/>
      <point x="458.667" y="78"/>
      <point x="421" y="85.667"/>
      <point x="385" y="101" type="curve"/>
      <point x="501" y="191.667"/>
      <point x="564.333" y="316"/>
      <point x="567" y="444" type="curve"/>
      <point x="503" y="488"/>
      <point x="412" y="517"/>
      <point x="328" y="517" type="curve" smooth="yes"/>
      <point x="233.333" y="517"/>
      <point x="138.333" y="475"/>
      <point x="65" y="407" type="curve"/>
      <point x="79.667" y="311"/>
      <point x="151.333" y="190.667"/>
      <point x="246" y="100" type="curve"/>
      <point x="140.667" y="26.667"/>
      <point x="94" y="-44"/>
    </contour>
    <contour>
      <point x="161" y="381" type="curve"/>
      <point x="217.667" y="419.667"/>
      <point x="274.333" y="439"/>
      <point x="331" y="439" type="curve" smooth="yes"/>
      <point x="380.333" y="439"/>
      <point x="428.333" y="426.667"/>
      <point x="475" y="402" type="curve"/>
      <point x="467" y="296.667"/>
      <point x="417.667" y="216.667"/>
      <point x="315" y="146" type="curve"/>
      <point x="236.333" y="210"/>
      <point x="177" y="303.667"/>
    </contour>
  </outline>
</glyph>
<glyph name="ain-ar.medi" format="2">
  <advance width="594"/>
  <note>
uni0639.medi
</note>
  <anchor x="244" y="-78" name="bottom"/>
  <anchor x="273" y="586" name="top"/>
  <outline>
    <contour>
      <point x="482" y="0" type="curve" smooth="yes"/>
      <point x="599" y="0" type="line" smooth="yes"/>
      <point x="602.333" y="0"/>
      <point x="604" y="1.667"/>
      <point x="604" y="5" type="curve" smooth="yes"/>
      <point x="604" y="74" type="line" smooth="yes"/>
      <point x="604" y="76.667"/>
      <point x="602.333" y="78"/>
      <point x="599" y="78" type="curve" smooth="yes"/>
      <point x="478" y="78" type="line" smooth="yes"/>
      <point x="441.333" y="78"/>
      <point x="404.333" y="85"/>
      <point x="367" y="99" type="curve"/>
      <point x="479" y="176.333"/>
      <point x="547" y="305.333"/>
      <point x="547" y="444" type="curve"/>
      <point x="483" y="488"/>
      <point x="392" y="517"/>
      <point x="308" y="517" type="curve" smooth="yes"/>
      <point x="213.333" y="517"/>
      <point x="118.333" y="475"/>
      <point x="45" y="407" type="curve"/>
      <point x="57" y="335"/>
      <point x="96.667" y="248.5"/>
      <point x="150" y="178.5" type="curve" smooth="yes"/>
      <point x="176.667" y="143.5"/>
      <point x="203" y="116.667"/>
      <point x="229" y="98" type="curve"/>
      <point x="197.667" y="84.667"/>
      <point x="158" y="78"/>
      <point x="110" y="78" type="curve" smooth="yes"/>
      <point x="-5" y="78" type="line" smooth="yes"/>
      <point x="-8.333" y="78"/>
      <point x="-10" y="76.667"/>
      <point x="-10" y="74" type="curve" smooth="yes"/>
      <point x="-10" y="5" type="line" smooth="yes"/>
      <point x="-10" y="1.667"/>
      <point x="-8.333" y="0"/>
      <point x="-5" y="0" type="curve" smooth="yes"/>
      <point x="111" y="0" type="line" smooth="yes"/>
      <point x="176.333" y="0"/>
      <point x="238.333" y="16.667"/>
      <point x="297" y="50" type="curve"/>
      <point x="358.333" y="16.667"/>
      <point x="426" y="0"/>
    </contour>
    <contour>
      <point x="298" y="143" type="curve"/>
      <point x="219.333" y="201.667"/>
      <point x="161" y="289"/>
      <point x="141" y="381" type="curve"/>
      <point x="197.667" y="419.667"/>
      <point x="254.333" y="439"/>
      <point x="311" y="439" type="curve" smooth="yes"/>
      <point x="360.333" y="439"/>
      <point x="408.333" y="426.667"/>
      <point x="455" y="402" type="curve"/>
      <point x="448.333" y="292.667"/>
      <point x="400.667" y="212.333"/>
    </contour>
  </outline>
</glyph>
<glyph name="alef-ar.fina" format="2">
  <advance width="316"/>
  <note>
uni0627.fina
</note>
  <anchor x="195" y="-78" name="bottom"/>
  <anchor x="146" y="820" name="top"/>
  <outline>
    <contour>
      <point x="321" y="78" type="curve" smooth="yes"/>
      <point x="189" y="78" type="line"/>
      <point x="189" y="760" type="line"/>
      <point x="100" y="760" type="line"/>
      <point x="100" y="0" type="line"/>
      <point x="321" y="0" type="line" smooth="yes"/>
      <point x="324.333" y="0"/>
      <point x="326" y="1.667"/>
      <point x="326" y="5" type="curve" smooth="yes"/>
      <point x="326" y="74" type="line" smooth="yes"/>
      <point x="326" y="76.667"/>
      <point x="324.333" y="78"/>
    </contour>
  </outline>
</glyph>
<glyph name="alefMaksura-ar.fina" format="2">
  <advance width="964"/>
  <note>
uni0649.fina
</note>
  <anchor x="391" y="-322" name="bottom"/>
  <anchor x="225" y="322" name="top"/>
  <outline>
    <contour>
      <point x="266" y="-240" type="curve" smooth="yes"/>
      <point x="471" y="-240" type="line" smooth="yes"/>
      <point x="642.333" y="-240"/>
      <point x="728" y="-174"/>
      <point x="728" y="-42" type="curve" smooth="yes"/>
      <point x="728" y="-6"/>
      <point x="707" y="22.833"/>
      <point x="667" y="43.5" type="curve" smooth="yes"/>
      <point x="647" y="53.833"/>
      <point x="613" y="66"/>
      <point x="565" y="80" type="curve" smooth="yes"/>
      <point x="526" y="92"/>
      <point x="490" y="107"/>
      <point x="490" y="135" type="curve" smooth="yes"/>
      <point x="490" y="189.198"/>
      <point x="565.942" y="265"/>
      <point x="622" y="265" type="curve" smooth="yes"/>
      <point x="638.667" y="265"/>
      <point x="656.5" y="257.167"/>
      <point x="675.5" y="241.5" type="curve" smooth="yes"/>
      <point x="694.5" y="225.833"/>
      <point x="720" y="195.333"/>
      <point x="752" y="150" type="curve" smooth="yes"/>
      <point x="778.667" y="112"/>
      <point x="795.667" y="89"/>
      <point x="803" y="81" type="curve" smooth="yes"/>
      <point x="857.667" y="23.667"/>
      <point x="908" y="0"/>
      <point x="964" y="0" type="curve" smooth="yes"/>
      <point x="969" y="0" type="line" smooth="yes"/>
      <point x="972.333" y="0"/>
      <point x="974" y="1.667"/>
      <point x="974" y="5" type="curve" smooth="yes"/>
      <point x="974" y="74" type="line" smooth="yes"/>
      <point x="974" y="76.667"/>
      <point x="972.333" y="78"/>
      <point x="969" y="78" type="curve" smooth="yes"/>
      <point x="964" y="78" type="line" smooth="yes"/>
      <point x="938.667" y="78"/>
      <point x="918" y="86.167"/>
      <point x="898" y="101.5" type="curve" smooth="yes"/>
      <point x="873.253" y="120.473"/>
      <point x="841.864" y="161.218"/>
      <point x="799" y="230" type="curve" smooth="yes"/>
      <point x="753.667" y="302"/>
      <point x="727.667" y="327"/>
      <point x="693" y="343" type="curve" smooth="yes"/>
      <point x="675.667" y="351"/>
      <point x="655.667" y="355"/>
      <point x="633" y="355" type="curve" smooth="yes"/>
      <point x="559.667" y="355"/>
      <point x="480.5" y="305.833"/>
      <point x="434.5" y="234.5" type="curve" smooth="yes"/>
      <point x="411.5" y="198.833"/>
      <point x="400" y="161.667"/>
      <point x="400" y="123" type="curve" smooth="yes"/>
      <point x="400" y="40"/>
      <point x="463" y="16"/>
      <point x="562" y="-11" type="curve" smooth="yes"/>
      <point x="611.333" y="-25.667"/>
      <point x="636" y="-44"/>
      <point x="636" y="-72" type="curve" smooth="yes"/>
      <point x="636" y="-121.333"/>
      <point x="565.667" y="-162"/>
      <point x="471" y="-162" type="curve" smooth="yes"/>
      <point x="285" y="-162" type="line" smooth="yes"/>
      <point x="201" y="-162"/>
      <point x="155" y="-101"/>
      <point x="155" y="7" type="curve" smooth="yes"/>
      <point x="155" y="77.19"/>
      <point x="161.029" y="125.075"/>
      <point x="183" y="181" type="curve"/>
      <point x="100" y="181" type="line"/>
      <point x="76" y="122.333"/>
      <point x="65" y="70.333"/>
      <point x="65" y="1" type="curve" smooth="yes"/>
      <point x="65" y="-147"/>
      <point x="140.667" y="-240"/>
    </contour>
  </outline>
</glyph>
<glyph name="beh_dotless_alt.init" format="2">
  <advance width="374"/>
  <note>
beh_dotless_alt.init
</note>
  <outline>
    <contour>
      <point x="-5" y="0" type="curve" smooth="yes"/>
      <point x="276" y="0" type="line"/>
      <point x="276" y="485" type="line"/>
      <point x="187" y="485" type="line"/>
      <point x="187" y="78" type="line"/>
      <point x="-5" y="78" type="line" smooth="yes"/>
      <point x="-8.333" y="78"/>
      <point x="-10" y="76.667"/>
      <point x="-10" y="74" type="curve" smooth="yes"/>
      <point x="-10" y="5" type="line" smooth="yes"/>
      <point x="-10" y="1.667"/>
      <point x="-8.333" y="0"/>
    </contour>
  </outline>
</glyph>
<glyph name="fourdots.below" format="2">
  <note>
fourdots.below
</note>
  <outline>
    <contour>
      <point x="-79" y="-372" type="curve" smooth="yes"/>
      <point x="-52.333" y="-372"/>
      <point x="-29" y="-356.667"/>
      <point x="-29" y="-318" type="curve" smooth="yes"/>
      <point x="-29" y="-280.667"/>
      <point x="-52.333" y="-264"/>
      <point x="-79" y="-264" type="curve" smooth="yes"/>
      <point x="-107" y="-264"/>
      <point x="-130" y="-280.667"/>
      <point x="-130" y="-318" type="curve" smooth="yes"/>
      <point x="-130" y="-352.667"/>
      <point x="-109.667" y="-372"/>
    </contour>
    <contour>
      <point x="76" y="-372" type="curve" smooth="yes"/>
      <point x="106.667" y="-372"/>
      <point x="127" y="-351.333"/>
      <point x="127" y="-318" type="curve" smooth="yes"/>
      <point x="127" y="-284.667"/>
      <point x="108" y="-264"/>
      <point x="76" y="-264" type="curve" smooth="yes"/>
      <point x="48" y="-264"/>
      <point x="26" y="-279.333"/>
      <point x="26" y="-318" type="curve" smooth="yes"/>
      <point x="26" y="-356.667"/>
      <point x="48" y="-372"/>
    </contour>
    <contour>
      <point x="-79" y="-205" type="curve" smooth="yes"/>
      <point x="-52.333" y="-205"/>
      <point x="-29" y="-189.667"/>
      <point x="-29" y="-151" type="curve" smooth="yes"/>
      <point x="-29" y="-113.667"/>
      <point x="-52.333" y="-97"/>
      <point x="-79" y="-97" type="curve" smooth="yes"/>
      <point x="-107" y="-97"/>
      <point x="-130" y="-113.667"/>
      <point x="-130" y="-151" type="curve" smooth="yes"/>
      <point x="-130" y="-185.667"/>
      <point x="-109.667" y="-205"/>
    </contour>
    <contour>
      <point x="76" y="-205" type="curve" smooth="yes"/>
      <point x="106.667" y="-205"/>
      <point x="127" y="-184.333"/>
      <point x="127" y="-151" type="curve" smooth="yes"/>
      <point x="127" y="-117.667"/>
      <point x="108" y="-97"/>
      <point x="76" y="-97" type="curve" smooth="yes"/>
      <point x="48" y="-97"/>
      <point x="26" y="-112.333"/>
      <point x="26" y="-151" type="curve" smooth="yes"/>
      <point x="26" y="-189.667"/>
      <point x="48" y="-205"/>
    </contour>
  </outline>
</glyph>
<glyph name="hah-ar.init" format="2">
  <advance width="580"/>
  <note>
uni062D.init
</note>
  <anchor x="244" y="-78" name="bottom"/>
  <anchor x="205" y="576" name="top"/>
  <outline>
    <contour>
      <point x="-5" y="0" type="curve" smooth="yes"/>
      <point x="515" y="0" type="line"/>
      <point x="515" y="76" type="line"/>
      <point x="483" y="105.333"/>
      <point x="460" y="165.333"/>
      <point x="440" y="284" type="curve" smooth="yes"/>
      <point x="422.667" y="392"/>
      <point x="392.667" y="443.667"/>
      <point x="338" y="473" type="curve" smooth="yes"/>
      <point x="310.667" y="487.667"/>
      <point x="276.667" y="495"/>
      <point x="236" y="495" type="curve" smooth="yes"/>
      <point x="169.333" y="495"/>
      <point x="112.333" y="483.333"/>
      <point x="55" y="446" type="curve"/>
      <point x="90" y="377" type="line"/>
      <point x="140.667" y="403.667"/>
      <point x="189" y="417"/>
      <point x="235" y="417" type="curve" smooth="yes"/>
      <point x="309.667" y="417"/>
      <point x="341" y="377"/>
      <point x="361" y="261" type="curve" smooth="yes"/>
      <point x="378.333" y="163.667"/>
      <point x="399.333" y="102.667"/>
      <point x="424" y="78" type="curve"/>
      <point x="-5" y="78" type="line" smooth="yes"/>
      <point x="-8.333" y="78"/>
      <point x="-10" y="76.667"/>
      <point x="-10" y="74" type="curve" smooth="yes"/>
      <point x="-10" y="5" type="line" smooth="yes"/>
      <point x="-10" y="1.667"/>
      <point x="-8.333" y="0"/>
    </contour>
  </outline>
</glyph>
<glyph name="hah_alt.fina" format="2">
  <advance width="614"/>
  <note>
hah_alt.fina
</note>
  <outline>
    <contour>
      <point x="253" y="-321" type="curve"/>
      <point x="272" y="-244" type="line"/>
      <point x="181.333" y="-244"/>
      <point x="136" y="-202.667"/>
      <point x="136" y="-120" type="curve" smooth="yes"/>
      <point x="136" y="-60"/>
      <point x="176" y="-8.833"/>
      <point x="264" y="34.5" type="curve" smooth="yes"/>
      <point x="308" y="56.167"/>
      <point x="369.667" y="78"/>
      <point x="449" y="100" type="curve"/>
      <point x="487.667" y="29.333"/>
      <point x="540.667" y="0"/>
      <point x="614" y="0" type="curve" smooth="yes"/>
      <point x="619" y="0" type="line" smooth="yes"/>
      <point x="622.333" y="0"/>
      <point x="624" y="1.667"/>
      <point x="624" y="5" type="curve" smooth="yes"/>
      <point x="624" y="74" type="line" smooth="yes"/>
      <point x="624" y="76.667"/>
      <point x="622.333" y="78"/>
      <point x="619" y="78" type="curve" smooth="yes"/>
      <point x="614" y="78" type="line" smooth="yes"/>
      <point x="562" y="78"/>
      <point x="531" y="102.833"/>
      <point x="511" y="151.5" type="curve" smooth="yes"/>
      <point x="501" y="175.833"/>
      <point x="490.667" y="220"/>
      <point x="480" y="284" type="curve" smooth="yes"/>
      <point x="458" y="424.667"/>
      <point x="383.333" y="495"/>
      <point x="256" y="495" type="curve" smooth="yes"/>
      <point x="181.333" y="495"/>
      <point x="95.667" y="469.333"/>
      <point x="45" y="436" type="curve"/>
      <point x="80" y="367" type="line"/>
      <point x="132" y="395"/>
      <point x="207" y="417"/>
      <point x="255" y="417" type="curve" smooth="yes"/>
      <point x="336.333" y="417"/>
      <point x="383.667" y="366.333"/>
      <point x="401" y="261" type="curve" smooth="yes"/>
      <point x="407" y="223.667"/>
      <point x="413.667" y="193.667"/>
      <point x="421" y="171" type="curve"/>
      <point x="233" y="116.333"/>
      <point x="132.5" y="59.667"/>
      <point x="82.5" y="-11" type="curve" smooth="yes"/>
      <point x="57.5" y="-46.333"/>
      <point x="45" y="-85.333"/>
      <point x="45" y="-128" type="curve" smooth="yes"/>
      <point x="45" y="-250.667"/>
      <point x="123.667" y="-321"/>
    </contour>
  </outline>
</glyph>
<glyph name="hah_alt.isol" format="2">
  <advance width="644"/>
  <note>
hah_alt.isol
</note>
  <outline>
    <contour>
      <point x="526" y="12" type="curve"/>
      <point x="579" y="81" type="line"/>
      <point x="525.667" y="117"/>
      <point x="496" y="180"/>
      <point x="480" y="284" type="curve" smooth="yes"/>
      <point x="458" y="424.667"/>
      <point x="383.333" y="495"/>
      <point x="256" y="495" type="curve" smooth="yes"/>
      <point x="181.333" y="495"/>
      <point x="95.667" y="469.333"/>
      <point x="45" y="436" type="curve"/>
      <point x="80" y="367" type="line"/>
      <point x="132" y="395"/>
      <point x="207" y="417"/>
      <point x="255" y="417" type="curve" smooth="yes"/>
      <point x="336.333" y="417"/>
      <point x="383.667" y="366.333"/>
      <point x="401" y="261" type="curve" smooth="yes"/>
      <point x="408.333" y="218.333"/>
      <point x="414.667" y="188.333"/>
      <point x="420" y="171" type="curve"/>
      <point x="226.667" y="113.667"/>
      <point x="130.167" y="58.667"/>
      <point x="81.5" y="-12" type="curve" smooth="yes"/>
      <point x="57.167" y="-47.333"/>
      <point x="45" y="-86"/>
      <point x="45" y="-128" type="curve" smooth="yes"/>
      <point x="45" y="-250.667"/>
      <point x="123.667" y="-321"/>
      <point x="253" y="-321" type="curve"/>
      <point x="272" y="-244" type="line"/>
      <point x="181.333" y="-244"/>
      <point x="136" y="-202.667"/>
      <point x="136" y="-120" type="curve" smooth="yes"/>
      <point x="136" y="-74"/>
      <point x="159.833" y="-33.333"/>
      <point x="207.5" y="2" type="curve" smooth="yes"/>
      <point x="255.167" y="37.333"/>
      <point x="335" y="70"/>
      <point x="447" y="100" type="curve"/>
      <point x="465.667" y="65.333"/>
      <point x="490" y="41.333"/>
    </contour>
  </outline>
</glyph>
<glyph name="hamza_medial" format="2">
  <note>
hamza_medial
</note>
  <outline>
    <contour>
      <point x="-99" y="454" type="line"/>
      <point x="-99" y="408" type="line"/>
      <point x="-39" y="417"/>
      <point x="33" y="426"/>
      <point x="94" y="432" type="curve"/>
      <point x="94" y="481" type="line"/>
      <point x="77" y="481"/>
      <point x="2" y="471"/>
      <point x="-6" y="468" type="curve"/>
      <point x="-26" y="478"/>
      <point x="-36" y="493.667"/>
      <point x="-36" y="515" type="curve" smooth="yes"/>
      <point x="-36" y="551"/>
      <point x="-13.333" y="566"/>
      <point x="16" y="566" type="curve" smooth="yes"/>
      <point x="36.667" y="566"/>
      <point x="53.333" y="562"/>
      <point x="66" y="554" type="curve"/>
      <point x="81" y="599" type="line"/>
      <point x="62.333" y="609"/>
      <point x="40.333" y="614"/>
      <point x="15" y="614" type="curve" smooth="yes"/>
      <point x="-49" y="614"/>
      <point x="-87" y="580"/>
      <point x="-87" y="524" type="curve" smooth="yes"/>
      <point x="-87" y="497.333"/>
      <point x="-75.333" y="476.333"/>
      <point x="-52" y="461" type="curve"/>
    </contour>
  </outline>
</glyph>
<glyph name="hehgoal-ar.fina" format="2">
  <advance width="652"/>
  <note>
uni06C1.fina
</note>
  <anchor x="293" y="-78" name="bottom"/>
  <anchor x="342" y="469" name="top"/>
  <outline>
    <contour>
      <point x="50" y="0" type="curve"/>
      <point x="157" y="0" type="line"/>
      <point x="229" y="148"/>
      <point x="270.667" y="202.167"/>
      <point x="328" y="245.5" type="curve" smooth="yes"/>
      <point x="356.667" y="267.167"/>
      <point x="392.667" y="286.333"/>
      <point x="436" y="303" type="curve"/>
      <point x="436" y="0" type="line"/>
      <point x="657" y="0" type="line" smooth="yes"/>
      <point x="660.333" y="0"/>
      <point x="662" y="1.667"/>
      <point x="662" y="5" type="curve" smooth="yes"/>
      <point x="662" y="74" type="line" smooth="yes"/>
      <point x="662" y="76.667"/>
      <point x="660.333" y="78"/>
      <point x="657" y="78" type="curve" smooth="yes"/>
      <point x="525" y="78" type="line"/>
      <point x="525" y="385" type="line"/>
      <point x="431" y="385" type="line"/>
      <point x="324.333" y="354.333"/>
      <point x="246.333" y="299.5"/>
      <point x="177" y="209.5" type="curve" smooth="yes"/>
      <point x="142.333" y="164.5"/>
      <point x="100" y="94.667"/>
    </contour>
  </outline>
</glyph>
<glyph name="kaf-ar.fina" format="2">
  <advance width="821"/>
  <note>
uni0643.fina
</note>
  <anchor x="391" y="-78" name="bottom"/>
  <anchor x="342" y="537" name="top"/>
  <outline>
    <contour>
      <point x="252" y="0" type="curve" smooth="yes"/>
      <point x="826" y="0" type="line" smooth="yes"/>
      <point x="829.333" y="0"/>
      <point x="831" y="1.667"/>
      <point x="831" y="5" type="curve" smooth="yes"/>
      <point x="831" y="74" type="line" smooth="yes"/>
      <point x="831" y="76.667"/>
      <point x="829.333" y="78"/>
      <point x="826" y="78" type="curve" smooth="yes"/>
      <point x="693" y="78" type="line"/>
      <point x="693" y="760" type="line"/>
      <point x="608" y="760" type="line"/>
      <point x="608" y="78" type="line"/>
      <point x="249" y="78" type="line" smooth="yes"/>
      <point x="187.667" y="78"/>
      <point x="150" y="119.333"/>
      <point x="150" y="186" type="curve" smooth="yes"/>
      <point x="150" y="224"/>
      <point x="155" y="266.667"/>
      <point x="165" y="314" type="curve"/>
      <point x="90" y="314" type="line"/>
      <point x="73.333" y="268.667"/>
      <point x="65" y="223.667"/>
      <point x="65" y="179" type="curve" smooth="yes"/>
      <point x="65" y="64.333"/>
      <point x="130.667" y="0"/>
    </contour>
    <contour>
      <point x="286" y="357" type="line"/>
      <point x="286" y="311" type="line"/>
      <point x="292.667" y="312.333"/>
      <point x="324.667" y="317"/>
      <point x="382" y="325" type="curve" smooth="yes"/>
      <point x="404.667" y="329"/>
      <point x="468.333" y="335"/>
      <point x="479" y="335" type="curve"/>
      <point x="479" y="384" type="line"/>
      <point x="464" y="384"/>
      <point x="416" y="378"/>
      <point x="396" y="374" type="curve" smooth="yes"/>
      <point x="379" y="371" type="line"/>
      <point x="361.667" y="379"/>
      <point x="349" y="395.333"/>
      <point x="349" y="418" type="curve" smooth="yes"/>
      <point x="349" y="452.667"/>
      <point x="371.667" y="469"/>
      <point x="401" y="469" type="curve" smooth="yes"/>
      <point x="420.333" y="469"/>
      <point x="437" y="465"/>
      <point x="451" y="457" type="curve"/>
      <point x="466" y="502" type="line"/>
      <point x="446.667" y="512"/>
      <point x="424.667" y="517"/>
      <point x="400" y="517" type="curve" smooth="yes"/>
      <point x="338.667" y="517"/>
      <point x="298" y="483"/>
      <point x="298" y="427" type="curve" smooth="yes"/>
      <point x="298" y="400.333"/>
      <point x="309.667" y="379.333"/>
      <point x="333" y="364" type="curve"/>
    </contour>
  </outline>
</glyph>
<glyph name="kaf-ar.medi" format="2">
  <advance width="626"/>
  <note>
uni0643.medi
</note>
  <anchor x="244" y="-78" name="bottom"/>
  <anchor x="127" y="757" name="top"/>
  <outline>
    <contour>
      <point x="-5" y="0" type="curve" smooth="yes"/>
      <point x="631" y="0" type="line" smooth="yes"/>
      <point x="634.333" y="0"/>
      <point x="636" y="1.667"/>
      <point x="636" y="5" type="curve" smooth="yes"/>
      <point x="636" y="74" type="line" smooth="yes"/>
      <point x="636" y="76.667"/>
      <point x="634.333" y="78"/>
      <point x="631" y="78" type="curve" smooth="yes"/>
      <point x="501" y="78" type="line"/>
      <point x="501" y="277" type="line" smooth="yes"/>
      <point x="501" y="410.333"/>
      <point x="406.667" y="485"/>
      <point x="232" y="485" type="curve" smooth="yes"/>
      <point x="145" y="485" type="line"/>
      <point x="189" y="578.333"/>
      <point x="323.333" y="690"/>
      <point x="446" y="738" type="curve"/>
      <point x="414" y="814" type="line"/>
      <point x="326" y="780.667"/>
      <point x="227" y="708.833"/>
      <point x="151" y="621.5" type="curve" smooth="yes"/>
      <point x="113" y="577.833"/>
      <point x="83.333" y="533.667"/>
      <point x="62" y="489" type="curve"/>
      <point x="62" y="407" type="line"/>
      <point x="232" y="407" type="line" smooth="yes"/>
      <point x="357.333" y="407"/>
      <point x="416" y="362"/>
      <point x="416" y="262" type="curve" smooth="yes"/>
      <point x="416" y="78" type="line"/>
      <point x="-5" y="78" type="line" smooth="yes"/>
      <point x="-8.333" y="78"/>
      <point x="-10" y="76.667"/>
      <point x="-10" y="74" type="curve" smooth="yes"/>
      <point x="-10" y="5" type="line" smooth="yes"/>
      <point x="-10" y="1.667"/>
      <point x="-8.333" y="0"/>
    </contour>
  </outline>
</glyph>
<glyph name="kafRing-ar.fina" format="2">
  <advance width="858"/>
  <note>
uni06AB.fina
</note>
  <anchor x="391" y="-78" name="bottom"/>
  <anchor x="342" y="732" name="top"/>
  <outline>
    <contour>
      <point x="577" y="513" type="curve" smooth="yes"/>
      <point x="646.333" y="513"/>
      <point x="689" y="556.333"/>
      <point x="689" y="619" type="curve" smooth="yes"/>
      <point x="689" y="665.667"/>
      <point x="664.667" y="699.333"/>
      <point x="626" y="714" type="curve"/>
      <point x="636.667" y="719.333"/>
      <point x="654" y="727.333"/>
      <point x="678" y="738" type="curve"/>
      <point x="646" y="814" type="line"/>
      <point x="558" y="780.667"/>
      <point x="457.833" y="708.833"/>
      <point x="382.5" y="621.5" type="curve" smooth="yes"/>
      <point x="344.833" y="577.833"/>
      <point x="315.333" y="533.667"/>
      <point x="294" y="489" type="curve"/>
      <point x="294" y="407" type="line"/>
      <point x="464" y="407" type="line" smooth="yes"/>
      <point x="589.333" y="407"/>
      <point x="648" y="362"/>
      <point x="648" y="262" type="curve" smooth="yes"/>
      <point x="648" y="78" type="line"/>
      <point x="249" y="78" type="line" smooth="yes"/>
      <point x="187.667" y="78"/>
      <point x="150" y="119.667"/>
      <point x="150" y="189" type="curve" smooth="yes"/>
      <point x="150" y="217"/>
      <point x="155" y="258.667"/>
      <point x="165" y="314" type="curve"/>
      <point x="85" y="314" type="line"/>
      <point x="73" y="268.667"/>
      <point x="65" y="213.667"/>
      <point x="65" y="179" type="curve" smooth="yes"/>
      <point x="65" y="64.333"/>
      <point x="130.667" y="0"/>
      <point x="252" y="0" type="curve" smooth="yes"/>
      <point x="863" y="0" type="line" smooth="yes"/>
      <point x="866.333" y="0"/>
      <point x="868" y="1.667"/>
      <point x="868" y="5" type="curve" smooth="yes"/>
      <point x="868" y="74" type="line" smooth="yes"/>
      <point x="868" y="76.667"/>
      <point x="866.333" y="78"/>
      <point x="863" y="78" type="curve" smooth="yes"/>
      <point x="733" y="78" type="line"/>
      <point x="733" y="277" type="line" smooth="yes"/>
      <point x="733" y="410.333"/>
      <point x="638.667" y="485"/>
      <point x="464" y="485" type="curve" smooth="yes"/>
      <point x="377" y="485" type="line"/>
      <point x="395" y="521.667"/>
      <point x="425.333" y="560.667"/>
      <point x="468" y="602" type="curve"/>
      <point x="474.667" y="544.667"/>
      <point x="517" y="513"/>
    </contour>
    <contour>
      <point x="577" y="563" type="curve" smooth="yes"/>
      <point x="541" y="563"/>
      <point x="522" y="583.333"/>
      <point x="522" y="618" type="curve" smooth="yes"/>
      <point x="522" y="654"/>
      <point x="545" y="673"/>
      <point x="577" y="673" type="curve" smooth="yes"/>
      <point x="609" y="673"/>
      <point x="632" y="654"/>
      <point x="632" y="618" type="curve" smooth="yes"/>
      <point x="632" y="583.333"/>
      <point x="609" y="563"/>
    </contour>
  </outline>
</glyph>
<glyph name="kafswash-ar.medi" format="2">
  <advance width="1056"/>
  <note>
uni06AA.medi
</note>
  <anchor x="439" y="-78" name="bottom"/>
  <anchor x="342" y="684" name="top"/>
  <outline>
    <contour>
      <point x="-10" y="78" type="line"/>
      <point x="-10" y="0" type="line"/>
      <point x="1061" y="0" type="line" smooth="yes"/>
      <point x="1064.333" y="0"/>
      <point x="1066" y="1.667"/>
      <point x="1066" y="5" type="curve" smooth="yes"/>
      <point x="1066" y="74" type="line" smooth="yes"/>
      <point x="1066" y="76.667"/>
      <point x="1064.333" y="78"/>
      <point x="1061" y="78" type="curve" smooth="yes"/>
      <point x="939" y="78" type="line"/>
      <point x="939" y="121" type="line" smooth="yes"/>
      <point x="939" y="254.333"/>
      <point x="844.667" y="329"/>
      <point x="670" y="329" type="curve" smooth="yes"/>
      <point x="215" y="329" type="line"/>
      <point x="261.667" y="423.667"/>
      <point x="393.333" y="532.667"/>
      <point x="516" y="582" type="curve"/>
      <point x="484" y="658" type="line"/>
      <point x="345.333" y="604.667"/>
      <point x="196" y="467.667"/>
      <point x="132" y="333" type="curve"/>
      <point x="132" y="251" type="line"/>
      <point x="670" y="251" type="line" smooth="yes"/>
      <point x="795.333" y="251"/>
      <point x="854" y="206"/>
      <point x="854" y="106" type="curve" smooth="yes"/>
      <point x="854" y="78" type="line"/>
    </contour>
  </outline>
</glyph>
<glyph name="keheh-ar.fina" format="2">
  <advance width="858"/>
  <note>
uni06A9.fina
</note>
  <anchor x="391" y="-78" name="bottom"/>
  <anchor x="342" y="732" name="top"/>
  <outline>
    <contour>
      <point x="252" y="0" type="curve" smooth="yes"/>
      <point x="863" y="0" type="line" smooth="yes"/>
      <point x="866.333" y="0"/>
      <point x="868" y="1.667"/>
      <point x="868" y="5" type="curve" smooth="yes"/>
      <point x="868" y="74" type="line" smooth="yes"/>
      <point x="868" y="76.667"/>
      <point x="866.333" y="78"/>
      <point x="863" y="78" type="curve" smooth="yes"/>
      <point x="733" y="78" type="line"/>
      <point x="733" y="277" type="line" smooth="yes"/>
      <point x="733" y="410.333"/>
      <point x="638.667" y="485"/>
      <point x="464" y="485" type="curve" smooth="yes"/>
      <point x="377" y="485" type="line"/>
      <point x="422.333" y="578.333"/>
      <point x="556.667" y="691.333"/>
      <point x="678" y="738" type="curve"/>
      <point x="646" y="814" type="line"/>
      <point x="558" y="780.667"/>
      <point x="457.833" y="708.833"/>
      <point x="382.5" y="621.5" type="curve" smooth="yes"/>
      <point x="344.833" y="577.833"/>
      <point x="315.333" y="533.667"/>
      <point x="294" y="489" type="curve"/>
      <point x="294" y="407" type="line"/>
      <point x="464" y="407" type="line" smooth="yes"/>
      <point x="589.333" y="407"/>
      <point x="648" y="362"/>
      <point x="648" y="262" type="curve" smooth="yes"/>
      <point x="648" y="78" type="line"/>
      <point x="249" y="78" type="line" smooth="yes"/>
      <point x="187.667" y="78"/>
      <point x="150" y="119.667"/>
      <point x="150" y="189" type="curve" smooth="yes"/>
      <point x="150" y="217"/>
      <point x="155" y="258.667"/>
      <point x="165" y="314" type="curve"/>
      <point x="85" y="314" type="line"/>
      <point x="73" y="268.667"/>
      <point x="65" y="213.667"/>
      <point x="65" y="179" type="curve" smooth="yes"/>
      <point x="65" y="64.333"/>
      <point x="130.667" y="0"/>
    </contour>
  </outline>
</glyph>
<glyph name="lam-ar.fina" format="2">
  <advance width="692"/>
  <note>
uni0644.fina
</note>
  <anchor x="342" y="-322" name="bottom"/>
  <anchor x="244" y="719" name="top"/>
  <outline>
    <contour>
      <point x="587" y="0" type="curve"/>
      <point x="697" y="0" type="line" smooth="yes"/>
      <point x="700.333" y="0"/>
      <point x="702" y="1.667"/>
      <point x="702" y="5" type="curve" smooth="yes"/>
      <point x="702" y="74" type="line" smooth="yes"/>
      <point x="702" y="76.667"/>
      <point x="700.333" y="78"/>
      <point x="697" y="78" type="curve" smooth="yes"/>
      <point x="587" y="78" type="line"/>
      <point x="587" y="760" type="line"/>
      <point x="502" y="760" type="line"/>
      <point x="502" y="-3" type="line" smooth="yes"/>
      <point x="502" y="-109.667"/>
      <point x="450" y="-162"/>
      <point x="334" y="-162" type="curve" smooth="yes"/>
      <point x="285" y="-162" type="line" smooth="yes"/>
      <point x="202.333" y="-162"/>
      <point x="155" y="-97.333"/>
      <point x="155" y="16" type="curve" smooth="yes"/>
      <point x="155" y="116"/>
      <point x="166.333" y="194.667"/>
      <point x="189" y="252" type="curve"/>
      <point x="106" y="252" type="line"/>
      <point x="79.333" y="188"/>
      <point x="65" y="98.667"/>
      <point x="65" y="16" type="curve" smooth="yes"/>
      <point x="65" y="-86"/>
      <point x="96" y="-161"/>
      <point x="150" y="-203" type="curve" smooth="yes"/>
      <point x="182" y="-227"/>
      <point x="221" y="-240"/>
      <point x="266" y="-240" type="curve" smooth="yes"/>
      <point x="338" y="-240" type="line" smooth="yes"/>
      <point x="507.333" y="-240"/>
      <point x="584.333" y="-158.667"/>
    </contour>
  </outline>
</glyph>
<glyph name="meem-ar.fina" format="2">
  <advance width="681"/>
  <note>
uni0645.fina
</note>
  <anchor x="361" y="-78" name="bottom"/>
  <anchor x="342" y="566" name="top"/>
  <outline>
    <contour>
      <point x="220" y="0" type="curve" smooth="yes"/>
      <point x="356" y="0" type="line" smooth="yes"/>
      <point x="417.333" y="0"/>
      <point x="475" y="21"/>
      <point x="518" y="65" type="curve"/>
      <point x="565" y="17"/>
      <point x="610.333" y="0"/>
      <point x="681" y="0" type="curve" smooth="yes"/>
      <point x="686" y="0" type="line" smooth="yes"/>
      <point x="689.333" y="0"/>
      <point x="691" y="1.667"/>
      <point x="691" y="5" type="curve" smooth="yes"/>
      <point x="691" y="74" type="line" smooth="yes"/>
      <point x="691" y="76.667"/>
      <point x="689.333" y="78"/>
      <point x="686" y="78" type="curve" smooth="yes"/>
      <point x="681" y="78" type="line" smooth="yes"/>
      <point x="625" y="78"/>
      <point x="592.333" y="92"/>
      <point x="563" y="136" type="curve"/>
      <point x="577" y="172"/>
      <point x="584" y="211.333"/>
      <point x="584" y="254" type="curve" smooth="yes"/>
      <point x="584" y="339.333"/>
      <point x="548.833" y="410.833"/>
      <point x="485.5" y="447.5" type="curve" smooth="yes"/>
      <point x="453.833" y="465.833"/>
      <point x="417.333" y="475"/>
      <point x="376" y="475" type="curve" smooth="yes"/>
      <point x="308" y="475"/>
      <point x="242.333" y="449.333"/>
      <point x="193" y="408" type="curve"/>
      <point x="169" y="361.333"/>
      <point x="157" y="308.333"/>
      <point x="157" y="249" type="curve" smooth="yes"/>
      <point x="157" y="198.333"/>
      <point x="169.333" y="141.333"/>
      <point x="194" y="78" type="curve"/>
      <point x="187" y="78" type="line" smooth="yes"/>
      <point x="114.49" y="78"/>
      <point x="65" y="24.52"/>
      <point x="65" y="-58" type="curve" smooth="yes"/>
      <point x="65" y="-320" type="line"/>
      <point x="149" y="-320" type="line"/>
      <point x="149" y="-73" type="line" smooth="yes"/>
      <point x="149" y="-24.333"/>
      <point x="172.667" y="0"/>
    </contour>
    <contour>
      <point x="247" y="266" type="curve" smooth="yes"/>
      <point x="247" y="300.667"/>
      <point x="247" y="329"/>
      <point x="259" y="357" type="curve"/>
      <point x="295" y="384.333"/>
      <point x="334" y="398"/>
      <point x="376" y="398" type="curve" smooth="yes"/>
      <point x="441.333" y="398"/>
      <point x="494" y="339"/>
      <point x="494" y="255" type="curve" smooth="yes"/>
      <point x="494" y="140.333"/>
      <point x="445.333" y="78"/>
      <point x="356" y="78" type="curve" smooth="yes"/>
      <point x="285" y="78" type="line"/>
      <point x="255.667" y="147.333"/>
      <point x="247" y="204.667"/>
    </contour>
  </outline>
</glyph>
<glyph name="meem-ar.init" format="2">
  <advance width="574"/>
  <note>
uni0645.init
</note>
  <anchor x="254" y="-78" name="bottom"/>
  <anchor x="273" y="566" name="top"/>
  <outline>
    <contour>
      <point x="-5" y="0" type="curve" smooth="yes"/>
      <point x="281" y="0" type="line" smooth="yes"/>
      <point x="370.333" y="0"/>
      <point x="442.5" y="42"/>
      <point x="480.5" y="118" type="curve" smooth="yes"/>
      <point x="499.5" y="156"/>
      <point x="509" y="201.333"/>
      <point x="509" y="254" type="curve" smooth="yes"/>
      <point x="509" y="339.333"/>
      <point x="473.833" y="410.833"/>
      <point x="410.5" y="447.5" type="curve" smooth="yes"/>
      <point x="378.833" y="465.833"/>
      <point x="342.333" y="475"/>
      <point x="301" y="475" type="curve" smooth="yes"/>
      <point x="233" y="475"/>
      <point x="167.333" y="449.333"/>
      <point x="118" y="408" type="curve"/>
      <point x="94" y="361.333"/>
      <point x="82" y="308.333"/>
      <point x="82" y="249" type="curve" smooth="yes"/>
      <point x="82" y="199.667"/>
      <point x="94.333" y="142.667"/>
      <point x="119" y="78" type="curve"/>
      <point x="-5" y="78" type="line" smooth="yes"/>
      <point x="-8.333" y="78"/>
      <point x="-10" y="76.667"/>
      <point x="-10" y="74" type="curve" smooth="yes"/>
      <point x="-10" y="5" type="line" smooth="yes"/>
      <point x="-10" y="1.667"/>
      <point x="-8.333" y="0"/>
    </contour>
    <contour>
      <point x="172" y="266" type="curve" smooth="yes"/>
      <point x="172" y="300.667"/>
      <point x="173.333" y="329"/>
      <point x="184" y="357" type="curve"/>
      <point x="216" y="381"/>
      <point x="258.333" y="398"/>
      <point x="301" y="398" type="curve" smooth="yes"/>
      <point x="366.333" y="398"/>
      <point x="419" y="339"/>
      <point x="419" y="255" type="curve" smooth="yes"/>
      <point x="419" y="140.333"/>
      <point x="370.333" y="78"/>
      <point x="281" y="78" type="curve" smooth="yes"/>
      <point x="210" y="78" type="line"/>
      <point x="180.667" y="147.333"/>
      <point x="172" y="204.667"/>
    </contour>
  </outline>
</glyph>
<glyph name="meem-ar.medi" format="2">
  <advance width="606"/>
  <note>
uni0645.medi
</note>
  <anchor x="254" y="-78" name="bottom"/>
  <anchor x="273" y="566" name="top"/>
  <outline>
    <contour>
      <point x="119" y="78" type="curve"/>
      <point x="-5" y="78" type="line" smooth="yes"/>
      <point x="-8.333" y="78"/>
      <point x="-10" y="76.667"/>
      <point x="-10" y="74" type="curve" smooth="yes"/>
      <point x="-10" y="5" type="line" smooth="yes"/>
      <point x="-10" y="1.667"/>
      <point x="-8.333" y="0"/>
      <point x="-5" y="0" type="curve" smooth="yes"/>
      <point x="281" y="0" type="line" smooth="yes"/>
      <point x="342.333" y="0"/>
      <point x="400.333" y="21"/>
      <point x="443" y="65" type="curve"/>
      <point x="489.667" y="17"/>
      <point x="535.333" y="0"/>
      <point x="606" y="0" type="curve" smooth="yes"/>
      <point x="611" y="0" type="line" smooth="yes"/>
      <point x="614.333" y="0"/>
      <point x="616" y="1.667"/>
      <point x="616" y="5" type="curve" smooth="yes"/>
      <point x="616" y="74" type="line" smooth="yes"/>
      <point x="616" y="76.667"/>
      <point x="614.333" y="78"/>
      <point x="611" y="78" type="curve" smooth="yes"/>
      <point x="606" y="78" type="line" smooth="yes"/>
      <point x="547.333" y="78"/>
      <point x="516" y="93.333"/>
      <point x="488" y="136" type="curve"/>
      <point x="502" y="172"/>
      <point x="509" y="211.333"/>
      <point x="509" y="254" type="curve" smooth="yes"/>
      <point x="509" y="339.333"/>
      <point x="473.833" y="410.833"/>
      <point x="410.5" y="447.5" type="curve" smooth="yes"/>
      <point x="378.833" y="465.833"/>
      <point x="342.333" y="475"/>
      <point x="301" y="475" type="curve" smooth="yes"/>
      <point x="233" y="475"/>
      <point x="167.333" y="449.333"/>
      <point x="118" y="408" type="curve"/>
      <point x="94" y="361.333"/>
      <point x="82" y="308.333"/>
      <point x="82" y="249" type="curve" smooth="yes"/>
      <point x="82" y="199.667"/>
      <point x="94.333" y="142.667"/>
    </contour>
    <contour>
      <point x="172" y="266" type="curve" smooth="yes"/>
      <point x="172" y="300.667"/>
      <point x="173.333" y="329"/>
      <point x="184" y="357" type="curve"/>
      <point x="216" y="381"/>
      <point x="258.333" y="398"/>
      <point x="301" y="398" type="curve" smooth="yes"/>
      <point x="366.333" y="398"/>
      <point x="419" y="339"/>
      <point x="419" y="255" type="curve" smooth="yes"/>
      <point x="419" y="140.333"/>
      <point x="370.333" y="78"/>
      <point x="281" y="78" type="curve" smooth="yes"/>
      <point x="210" y="78" type="line"/>
      <point x="180.667" y="147.333"/>
      <point x="172" y="204.667"/>
    </contour>
  </outline>
</glyph>
<glyph name="onedot.above" format="2">
  <note>
onedot.above
</note>
  <outline>
    <contour>
      <point x="0" y="580" type="curve" smooth="yes"/>
      <point x="36" y="580"/>
      <point x="56" y="604"/>
      <point x="56" y="640" type="curve" smooth="yes"/>
      <point x="56" y="676"/>
      <point x="36" y="700"/>
      <point x="0" y="700" type="curve" smooth="yes"/>
      <point x="-34.667" y="700"/>
      <point x="-56" y="678.667"/>
      <point x="-56" y="640" type="curve" smooth="yes"/>
      <point x="-56" y="601.333"/>
      <point x="-34.667" y="580"/>
    </contour>
  </outline>
</glyph>
<glyph name="onedot.below" format="2">
  <note>
onedot.below
</note>
  <outline>
    <contour>
      <point x="0" y="-200" type="curve" smooth="yes"/>
      <point x="36" y="-200"/>
      <point x="56" y="-176"/>
      <point x="56" y="-140" type="curve" smooth="yes"/>
      <point x="56" y="-104"/>
      <point x="36" y="-80"/>
      <point x="0" y="-80" type="curve" smooth="yes"/>
      <point x="-34.667" y="-80"/>
      <point x="-56" y="-101.333"/>
      <point x="-56" y="-140" type="curve" smooth="yes"/>
      <point x="-56" y="-178.667"/>
      <point x="-34.667" y="-200"/>
    </contour>
  </outline>
</glyph>
<glyph name="qafDotless-ar.init" format="2">
  <advance width="585"/>
  <note>
uni066F.init
</note>
  <anchor x="293" y="-78" name="bottom"/>
  <anchor x="293" y="566" name="top"/>
  <outline>
    <contour>
      <point x="-5" y="0" type="curve" smooth="yes"/>
      <point x="500" y="0" type="line"/>
      <point x="500" y="485" type="line"/>
      <point x="369" y="485" type="line" smooth="yes"/>
      <point x="199.667" y="485"/>
      <point x="95" y="385"/>
      <point x="95" y="229" type="curve" smooth="yes"/>
      <point x="95" y="175.667"/>
      <point x="113.667" y="116.667"/>
      <point x="147" y="78" type="curve"/>
      <point x="-5" y="78" type="line" smooth="yes"/>
      <point x="-8.333" y="78"/>
      <point x="-10" y="76.667"/>
      <point x="-10" y="74" type="curve" smooth="yes"/>
      <point x="-10" y="5" type="line" smooth="yes"/>
      <point x="-10" y="1.667"/>
      <point x="-8.333" y="0"/>
    </contour>
    <contour>
      <point x="321" y="78" type="line" smooth="yes"/>
      <point x="229.667" y="78"/>
      <point x="184" y="128.667"/>
      <point x="184" y="230" type="curve" smooth="yes"/>
      <point x="184" y="342"/>
      <point x="253.333" y="407"/>
      <point x="372" y="407" type="curve" smooth="yes"/>
      <point x="415" y="407" type="line"/>
      <point x="415" y="78" type="line"/>
    </contour>
  </outline>
</glyph>
<glyph name="qafDotless-ar.medi" format="2">
  <advance width="601"/>
  <note>
uni066F.medi
</note>
  <anchor x="293" y="-78" name="bottom"/>
  <anchor x="293" y="566" name="top"/>
  <outline>
    <contour>
      <point x="606" y="78" type="curve" smooth="yes"/>
      <point x="500" y="78" type="line"/>
      <point x="500" y="485" type="line"/>
      <point x="369" y="485" type="line" smooth="yes"/>
      <point x="201" y="485"/>
      <point x="95" y="387.667"/>
      <point x="95" y="229" type="curve" smooth="yes"/>
      <point x="95" y="175.667"/>
      <point x="113.667" y="116.667"/>
      <point x="147" y="78" type="curve"/>
      <point x="-5" y="78" type="line" smooth="yes"/>
      <point x="-8.333" y="78"/>
      <point x="-10" y="76.667"/>
      <point x="-10" y="74" type="curve" smooth="yes"/>
      <point x="-10" y="5" type="line" smooth="yes"/>
      <point x="-10" y="1.667"/>
      <point x="-8.333" y="0"/>
      <point x="-5" y="0" type="curve" smooth="yes"/>
      <point x="606" y="0" type="line" smooth="yes"/>
      <point x="609.333" y="0"/>
      <point x="611" y="1.333"/>
      <point x="611" y="4" type="curve" smooth="yes"/>
      <point x="611" y="73" type="line" smooth="yes"/>
      <point x="611" y="75"/>
      <point x="611" y="78"/>
    </contour>
    <contour>
      <point x="415" y="78" type="line"/>
      <point x="321" y="78" type="line" smooth="yes"/>
      <point x="229.667" y="78"/>
      <point x="184" y="128.333"/>
      <point x="184" y="229" type="curve" smooth="yes"/>
      <point x="184" y="341"/>
      <point x="253.333" y="407"/>
      <point x="372" y="407" type="curve" smooth="yes"/>
      <point x="415" y="407" type="line"/>
    </contour>
  </outline>
</glyph>
<glyph name="reh-ar.fina" format="2">
  <advance width="359"/>
  <note>
uni0631.fina
</note>
  <anchor x="98" y="-293" name="bottom"/>
  <anchor x="176" y="547" name="top"/>
  <outline>
    <contour>
      <point x="240" y="0" type="line"/>
      <point x="364" y="0" type="line" smooth="yes"/>
      <point x="367.333" y="0"/>
      <point x="369" y="1.667"/>
      <point x="369" y="5" type="curve" smooth="yes"/>
      <point x="369" y="74" type="line" smooth="yes"/>
      <point x="369" y="76.667"/>
      <point x="367.333" y="78"/>
      <point x="364" y="78" type="curve" smooth="yes"/>
      <point x="240" y="78" type="line"/>
      <point x="240" y="485" type="line"/>
      <point x="156" y="485" type="line"/>
      <point x="156" y="-29" type="line" smooth="yes"/>
      <point x="156" y="-109"/>
      <point x="120" y="-162"/>
      <point x="60" y="-162" type="curve" smooth="yes"/>
      <point x="36" y="-162"/>
      <point x="18" y="-159.667"/>
      <point x="-14" y="-145" type="curve"/>
      <point x="-40" y="-212" type="line"/>
      <point x="-4" y="-230.667"/>
      <point x="30" y="-240"/>
      <point x="62" y="-240" type="curve" smooth="yes"/>
      <point x="176.667" y="-240"/>
      <point x="240" y="-158.667"/>
      <point x="240" y="-24" type="curve" smooth="yes"/>
    </contour>
  </outline>
</glyph>
<glyph name="sad-ar.fina" format="2">
  <advance width="1222"/>
  <note>
uni0635.fina
</note>
  <anchor x="811" y="-78" name="bottom"/>
  <anchor x="830" y="586" name="top"/>
  <outline>
    <contour>
      <point x="587" y="0" type="curve"/>
      <point x="1227" y="0" type="line" smooth="yes"/>
      <point x="1230.333" y="0"/>
      <point x="1232" y="1.667"/>
      <point x="1232" y="5" type="curve" smooth="yes"/>
      <point x="1232" y="74" type="line" smooth="yes"/>
      <point x="1232" y="76.667"/>
      <point x="1230.333" y="78"/>
      <point x="1227" y="78" type="curve" smooth="yes"/>
      <point x="1093" y="78" type="line"/>
      <point x="1093" y="241" type="line" smooth="yes"/>
      <point x="1093" y="415.667"/>
      <point x="1014.667" y="495"/>
      <point x="864" y="495" type="curve" smooth="yes"/>
      <point x="745.333" y="495"/>
      <point x="649.667" y="419.333"/>
      <point x="587" y="270" type="curve"/>
      <point x="587" y="485" type="line"/>
      <point x="502" y="485" type="line"/>
      <point x="502" y="-3" type="line" smooth="yes"/>
      <point x="502" y="-109.667"/>
      <point x="450" y="-162"/>
      <point x="334" y="-162" type="curve" smooth="yes"/>
      <point x="285" y="-162" type="line" smooth="yes"/>
      <point x="202.333" y="-162"/>
      <point x="155" y="-97.333"/>
      <point x="155" y="16" type="curve" smooth="yes"/>
      <point x="155" y="116"/>
      <point x="166.333" y="194.667"/>
      <point x="189" y="252" type="curve"/>
      <point x="106" y="252" type="line"/>
      <point x="79.333" y="188"/>
      <point x="65" y="98.667"/>
      <point x="65" y="16" type="curve" smooth="yes"/>
      <point x="65" y="-84"/>
      <point x="95" y="-159"/>
      <point x="148" y="-201" type="curve" smooth="yes"/>
      <point x="179" y="-226"/>
      <point x="219" y="-240"/>
      <point x="266" y="-240" type="curve" smooth="yes"/>
      <point x="338" y="-240" type="line" smooth="yes"/>
      <point x="510" y="-240"/>
      <point x="587" y="-161.333"/>
    </contour>
    <contour>
      <point x="1008" y="78" type="line"/>
      <point x="587" y="78" type="line"/>
      <point x="587" y="162" type="line"/>
      <point x="656.333" y="331.333"/>
      <point x="742.667" y="416"/>
      <point x="846" y="416" type="curve" smooth="yes"/>
      <point x="955.333" y="416"/>
      <point x="1008" y="359.667"/>
      <point x="1008" y="237" type="curve" smooth="yes"/>
    </contour>
  </outline>
</glyph>
<glyph name="smallv.arabic" format="2">
  <note>
smallv.arabic
</note>
  <outline>
    <contour>
      <point x="142" y="828" type="line"/>
      <point x="65" y="828" type="line"/>
      <point x="0" y="699" type="line"/>
      <point x="-63" y="828" type="line"/>
      <point x="-141" y="828" type="line"/>
      <point x="-30" y="629" type="line"/>
      <point x="32" y="629" type="line"/>
    </contour>
  </outline>
</glyph>
<glyph name="tah-ar.init" format="2">
  <advance width="773"/>
  <note>
uni0637.init
</note>
  <anchor x="361" y="-78" name="bottom"/>
  <anchor x="391" y="732" name="top"/>
  <outline>
    <contour>
      <point x="-5" y="0" type="curve" smooth="yes"/>
      <point x="708" y="0" type="line"/>
      <point x="708" y="241" type="line" smooth="yes"/>
      <point x="708" y="415.667"/>
      <point x="629.667" y="495"/>
      <point x="479" y="495" type="curve" smooth="yes"/>
      <point x="361.667" y="495"/>
      <point x="264.667" y="419.333"/>
      <point x="202" y="270" type="curve"/>
      <point x="202" y="760" type="line"/>
      <point x="117" y="760" type="line"/>
      <point x="117" y="78" type="line"/>
      <point x="-5" y="78" type="line" smooth="yes"/>
      <point x="-8.333" y="78"/>
      <point x="-10" y="76.667"/>
      <point x="-10" y="74" type="curve" smooth="yes"/>
      <point x="-10" y="5" type="line" smooth="yes"/>
      <point x="-10" y="1.667"/>
      <point x="-8.333" y="0"/>
    </contour>
    <contour>
      <point x="623" y="78" type="line"/>
      <point x="202" y="78" type="line"/>
      <point x="202" y="160" type="line"/>
      <point x="272" y="330.667"/>
      <point x="358.333" y="416"/>
      <point x="461" y="416" type="curve" smooth="yes"/>
      <point x="569" y="416"/>
      <point x="623" y="359.667"/>
      <point x="623" y="237" type="curve" smooth="yes"/>
    </contour>
  </outline>
</glyph>
<glyph name="threedots.rev.above" format="2">
  <note>
threedots.rev.above
</note>
  <outline>
    <contour>
      <point x="0" y="689" type="curve" smooth="yes"/>
      <point x="-28" y="689"/>
      <point x="-52" y="672.667"/>
      <point x="-52" y="634" type="curve" smooth="yes"/>
      <point x="-52" y="595.333"/>
      <point x="-28" y="579"/>
      <point x="0" y="579" type="curve" smooth="yes"/>
      <point x="29.333" y="579"/>
      <point x="52" y="595.333"/>
      <point x="52" y="634" type="curve" smooth="yes"/>
      <point x="52" y="672.667"/>
      <point x="29.333" y="689"/>
    </contour>
    <contour>
      <point x="86" y="824" type="curve" smooth="yes"/>
      <point x="50" y="824"/>
      <point x="30" y="801.333"/>
      <point x="30" y="764" type="curve" smooth="yes"/>
      <point x="30" y="728"/>
      <point x="50" y="704"/>
      <point x="86" y="704" type="curve" smooth="yes"/>
      <point x="116.667" y="704"/>
      <point x="142" y="721.333"/>
      <point x="142" y="764" type="curve" smooth="yes"/>
      <point x="142" y="806.667"/>
      <point x="116.667" y="824"/>
    </contour>
    <contour>
      <point x="-87" y="824" type="curve" smooth="yes"/>
      <point x="-121.667" y="824"/>
      <point x="-143" y="802.667"/>
      <point x="-143" y="764" type="curve" smooth="yes"/>
      <point x="-143" y="725.333"/>
      <point x="-121.667" y="704"/>
      <point x="-87" y="704" type="curve" smooth="yes"/>
      <point x="-52.333" y="704"/>
      <point x="-31" y="725.333"/>
      <point x="-31" y="764" type="curve" smooth="yes"/>
      <point x="-31" y="802.667"/>
      <point x="-52.333" y="824"/>
    </contour>
  </outline>
</glyph>
<glyph name="threedots.small.above" format="2">
  <note>
threedots.small.above
</note>
  <outline>
    <contour>
      <point x="0" y="711" type="curve" smooth="yes"/>
      <point x="20" y="711"/>
      <point x="37" y="722"/>
      <point x="37" y="750" type="curve" smooth="yes"/>
      <point x="37" y="776.667"/>
      <point x="20" y="788"/>
      <point x="0" y="788" type="curve" smooth="yes"/>
      <point x="-21.333" y="788"/>
      <point x="-36" y="776.667"/>
      <point x="-36" y="750" type="curve" smooth="yes"/>
      <point x="-36" y="724"/>
      <point x="-24" y="711"/>
    </contour>
    <contour>
      <point x="-60" y="617" type="curve" smooth="yes"/>
      <point x="-38.667" y="617"/>
      <point x="-21" y="628.333"/>
      <point x="-21" y="659" type="curve" smooth="yes"/>
      <point x="-21" y="688.333"/>
      <point x="-38.667" y="701"/>
      <point x="-60" y="701" type="curve" smooth="yes"/>
      <point x="-82.667" y="701"/>
      <point x="-99" y="688.333"/>
      <point x="-99" y="659" type="curve" smooth="yes"/>
      <point x="-99" y="631"/>
      <point x="-86" y="617"/>
    </contour>
    <contour>
      <point x="61" y="617" type="curve" smooth="yes"/>
      <point x="82.333" y="617"/>
      <point x="100" y="628.333"/>
      <point x="100" y="659" type="curve" smooth="yes"/>
      <point x="100" y="688.333"/>
      <point x="82.333" y="701"/>
      <point x="61" y="701" type="curve" smooth="yes"/>
      <point x="38.333" y="701"/>
      <point x="22" y="688.333"/>
      <point x="22" y="659" type="curve" smooth="yes"/>
      <point x="22" y="631"/>
      <point x="35" y="617"/>
    </contour>
  </outline>
</glyph>
<glyph name="threedots_alt1.above" format="2">
  <advance width="275"/>
  <note>
threedots_alt1.above
</note>
  <outline>
    <contour>
      <point x="100" y="700" type="curve" smooth="yes"/>
      <point x="121.333" y="700"/>
      <point x="139" y="712.667"/>
      <point x="139" y="742" type="curve" smooth="yes"/>
      <point x="139" y="771.333"/>
      <point x="121.333" y="784"/>
      <point x="100" y="784" type="curve" smooth="yes"/>
      <point x="77.333" y="784"/>
      <point x="61" y="771.333"/>
      <point x="61" y="742" type="curve" smooth="yes"/>
      <point x="61" y="712.667"/>
      <point x="77.333" y="700"/>
    </contour>
    <contour>
      <point x="83" y="829" type="curve" smooth="yes"/>
      <point x="104.333" y="829"/>
      <point x="122" y="841.667"/>
      <point x="122" y="871" type="curve" smooth="yes"/>
      <point x="122" y="900.333"/>
      <point x="104.333" y="913"/>
      <point x="83" y="913" type="curve" smooth="yes"/>
      <point x="60.333" y="913"/>
      <point x="44" y="900.333"/>
      <point x="44" y="871" type="curve" smooth="yes"/>
      <point x="44" y="841.667"/>
      <point x="60.333" y="829"/>
    </contour>
    <contour>
      <point x="201" y="783" type="curve" smooth="yes"/>
      <point x="222.333" y="783"/>
      <point x="240" y="795.667"/>
      <point x="240" y="825" type="curve" smooth="yes"/>
      <point x="240" y="854.333"/>
      <point x="222.333" y="867"/>
      <point x="201" y="867" type="curve" smooth="yes"/>
      <point x="179.667" y="867"/>
      <point x="162" y="854.333"/>
      <point x="162" y="825" type="curve" smooth="yes"/>
      <point x="162" y="795.667"/>
      <point x="179.667" y="783"/>
    </contour>
  </outline>
</glyph>
<glyph name="twodots.above" format="2">
  <note>
twodots.above
</note>
  <outline>
    <contour>
      <point x="-88" y="580" type="curve" smooth="yes"/>
      <point x="-53.333" y="580"/>
      <point x="-32" y="601.333"/>
      <point x="-32" y="640" type="curve" smooth="yes"/>
      <point x="-32" y="678.667"/>
      <point x="-53.333" y="700"/>
      <point x="-88" y="700" type="curve" smooth="yes"/>
      <point x="-118.667" y="700"/>
      <point x="-144" y="682.667"/>
      <point x="-144" y="640" type="curve" smooth="yes"/>
      <point x="-144" y="597.333"/>
      <point x="-118.667" y="580"/>
    </contour>
    <contour>
      <point x="85" y="580" type="curve" smooth="yes"/>
      <point x="121" y="580"/>
      <point x="141" y="604"/>
      <point x="141" y="640" type="curve" smooth="yes"/>
      <point x="141" y="676"/>
      <point x="121" y="700"/>
      <point x="85" y="700" type="curve" smooth="yes"/>
      <point x="50.333" y="700"/>
      <point x="29" y="678.667"/>
      <point x="29" y="640" type="curve" smooth="yes"/>
      <point x="29" y="601.333"/>
      <point x="50.333" y="580"/>
    </contour>
  </outline>
</glyph>
<glyph name="twodots.small.above" format="2">
  <note>
twodots.small.above
</note>
  <outline>
    <contour>
      <point x="-62" y="598" type="curve" smooth="yes"/>
      <point x="-40.667" y="598"/>
      <point x="-23" y="610.667"/>
      <point x="-23" y="640" type="curve" smooth="yes"/>
      <point x="-23" y="669.333"/>
      <point x="-40.667" y="682"/>
      <point x="-62" y="682" type="curve" smooth="yes"/>
      <point x="-84.667" y="682"/>
      <point x="-101" y="669.333"/>
      <point x="-101" y="640" type="curve" smooth="yes"/>
      <point x="-101" y="610.667"/>
      <point x="-84.667" y="598"/>
    </contour>
    <contour>
      <point x="59" y="598" type="curve" smooth="yes"/>
      <point x="80.333" y="598"/>
      <point x="98" y="610.667"/>
      <point x="98" y="640" type="curve" smooth="yes"/>
      <point x="98" y="669.333"/>
      <point x="80.333" y="682"/>
      <point x="59" y="682" type="curve" smooth="yes"/>
      <point x="36.333" y="682"/>
      <point x="20" y="669.333"/>
      <point x="20" y="640" type="curve" smooth="yes"/>
      <point x="20" y="610.667"/>
      <point x="36.333" y="598"/>
    </contour>
  </outline>
</glyph>
<glyph name="twodots.small.below" format="2">
  <note>
twodots.small.below
</note>
  <outline>
    <contour>
      <point x="-62" y="-182" type="curve" smooth="yes"/>
      <point x="-40.667" y="-182"/>
      <point x="-23" y="-169.333"/>
      <point x="-23" y="-140" type="curve" smooth="yes"/>
      <point x="-23" y="-110.667"/>
      <point x="-40.667" y="-98"/>
      <point x="-62" y="-98" type="curve" smooth="yes"/>
      <point x="-84.667" y="-98"/>
      <point x="-101" y="-110.667"/>
      <point x="-101" y="-140" type="curve" smooth="yes"/>
      <point x="-101" y="-169.333"/>
      <point x="-84.667" y="-182"/>
    </contour>
    <contour>
      <point x="59" y="-182" type="curve" smooth="yes"/>
      <point x="80.333" y="-182"/>
      <point x="98" y="-169.333"/>
      <point x="98" y="-140" type="curve" smooth="yes"/>
      <point x="98" y="-110.667"/>
      <point x="80.333" y="-98"/>
      <point x="59" y="-98" type="curve" smooth="yes"/>
      <point x="36.333" y="-98"/>
      <point x="20" y="-110.667"/>
      <point x="20" y="-140" type="curve" smooth="yes"/>
      <point x="20" y="-169.333"/>
      <point x="36.333" y="-182"/>
    </contour>
  </outline>
</glyph>
<glyph name="twodots.vert.small.above" format="2">
  <note>
twodots.vert.small.above
</note>
  <outline>
    <contour>
      <point x="0" y="625" type="curve" smooth="yes"/>
      <point x="21.333" y="625"/>
      <point x="39" y="637.667"/>
      <point x="39" y="667" type="curve" smooth="yes"/>
      <point x="39" y="696.333"/>
      <point x="21.333" y="709"/>
      <point x="0" y="709" type="curve" smooth="yes"/>
      <point x="-22.667" y="709"/>
      <point x="-39" y="696.333"/>
      <point x="-39" y="667" type="curve" smooth="yes"/>
      <point x="-39" y="637.667"/>
      <point x="-22.667" y="625"/>
    </contour>
    <contour>
      <point x="0" y="752" type="curve" smooth="yes"/>
      <point x="21.333" y="752"/>
      <point x="39" y="763.333"/>
      <point x="39" y="794" type="curve" smooth="yes"/>
      <point x="39" y="823.333"/>
      <point x="21.333" y="836"/>
      <point x="0" y="836" type="curve" smooth="yes"/>
      <point x="-22.667" y="836"/>
      <point x="-39" y="823.333"/>
      <point x="-39" y="794" type="curve" smooth="yes"/>
      <point x="-39" y="763.333"/>
      <point x="-22.667" y="752"/>
    </contour>
  </outline>
</glyph>
<glyph name="twodots.vert.small.below" format="2">
  <note>
twodots.vert.small.below
</note>
  <outline>
    <contour>
      <point x="0" y="-336" type="curve" smooth="yes"/>
      <point x="21.333" y="-336"/>
      <point x="39" y="-323.333"/>
      <point x="39" y="-294" type="curve" smooth="yes"/>
      <point x="39" y="-263.333"/>
      <point x="21.333" y="-252"/>
      <point x="0" y="-252" type="curve" smooth="yes"/>
      <point x="-22.667" y="-252"/>
      <point x="-39" y="-263.333"/>
      <point x="-39" y="-294" type="curve" smooth="yes"/>
      <point x="-39" y="-323.333"/>
      <point x="-22.667" y="-336"/>
    </contour>
    <contour>
      <point x="0" y="-209" type="curve" smooth="yes"/>
      <point x="21.333" y="-209"/>
      <point x="39" y="-196.333"/>
      <point x="39" y="-167" type="curve" smooth="yes"/>
      <point x="39" y="-137.667"/>
      <point x="21.333" y="-125"/>
      <point x="0" y="-125" type="curve" smooth="yes"/>
      <point x="-22.667" y="-125"/>
      <point x="-39" y="-137.667"/>
      <point x="-39" y="-167" type="curve" smooth="yes"/>
      <point x="-39" y="-196.333"/>
      <point x="-22.667" y="-209"/>
    </contour>
  </outline>
</glyph>
<glyph name="wasla" format="2">
  <note>
wasla
</note>
  <anchor x="0" y="762" name="_top"/>
  <anchor x="0" y="762" name="_top2"/>
  <outline>
    <contour>
      <point x="-130" y="816" type="line"/>
      <point x="-130" y="770" type="line"/>
      <point x="114" y="770" type="line"/>
      <point x="114" y="816" type="line" smooth="yes"/>
      <point x="114" y="880"/>
      <point x="82.667" y="918"/>
      <point x="28" y="918" type="curve" smooth="yes"/>
      <point x="-23.333" y="918"/>
      <point x="-60.667" y="884"/>
      <point x="-84" y="816" type="curve"/>
    </contour>
    <contour>
      <point x="63" y="816" type="curve"/>
      <point x="-29" y="816" type="line"/>
      <point x="-18.333" y="848"/>
      <point x="4" y="871"/>
      <point x="28" y="871" type="curve" smooth="yes"/>
      <point x="52" y="871"/>
      <point x="63" y="854.667"/>
    </contour>
  </outline>
</glyph>
<glyph name="yehTail-ar.fina" format="2">
  <advance width="1083"/>
  <note>
uni06CD.fina
</note>
  <anchor x="537" y="-322" name="bottom"/>
  <anchor x="225" y="322" name="top"/>
  <outline>
    <contour>
      <point x="385" y="-240" type="curve" smooth="yes"/>
      <point x="590" y="-240" type="line" smooth="yes"/>
      <point x="761.333" y="-240"/>
      <point x="847" y="-174"/>
      <point x="847" y="-42" type="curve" smooth="yes"/>
      <point x="847" y="7.333"/>
      <point x="809.333" y="42"/>
      <point x="728" y="66" type="curve" smooth="yes"/>
      <point x="678.667" y="81.333"/>
      <point x="646.5" y="93.5"/>
      <point x="631.5" y="102.5" type="curve" smooth="yes"/>
      <point x="616.5" y="111.5"/>
      <point x="609" y="122.333"/>
      <point x="609" y="135" type="curve" smooth="yes"/>
      <point x="609" y="188.161"/>
      <point x="684.666" y="265"/>
      <point x="741" y="265" type="curve" smooth="yes"/>
      <point x="758.333" y="265"/>
      <point x="776.833" y="256.667"/>
      <point x="796.5" y="240" type="curve" smooth="yes"/>
      <point x="816.167" y="223.333"/>
      <point x="841" y="193.333"/>
      <point x="871" y="150" type="curve" smooth="yes"/>
      <point x="896.333" y="113.333"/>
      <point x="913.333" y="90.333"/>
      <point x="922" y="81" type="curve" smooth="yes"/>
      <point x="976.667" y="23.667"/>
      <point x="1027" y="0"/>
      <point x="1083" y="0" type="curve" smooth="yes"/>
      <point x="1088" y="0" type="line" smooth="yes"/>
      <point x="1091.333" y="0"/>
      <point x="1093" y="1.667"/>
      <point x="1093" y="5" type="curve" smooth="yes"/>
      <point x="1093" y="74" type="line" smooth="yes"/>
      <point x="1093" y="76.667"/>
      <point x="1091.333" y="78"/>
      <point x="1088" y="78" type="curve" smooth="yes"/>
      <point x="1083" y="78" type="line" smooth="yes"/>
      <point x="1057.667" y="78"/>
      <point x="1035.833" y="86.167"/>
      <point x="1016.5" y="101.5" type="curve" smooth="yes"/>
      <point x="991.518" y="121.313"/>
      <point x="960.22" y="160.648"/>
      <point x="917" y="230" type="curve" smooth="yes"/>
      <point x="870.333" y="304.667"/>
      <point x="845.5" y="327"/>
      <point x="811.5" y="343" type="curve" smooth="yes"/>
      <point x="794.5" y="351"/>
      <point x="774.667" y="355"/>
      <point x="752" y="355" type="curve" smooth="yes"/>
      <point x="678.667" y="355"/>
      <point x="599.5" y="305.833"/>
      <point x="553.5" y="234.5" type="curve" smooth="yes"/>
      <point x="530.5" y="198.833"/>
      <point x="519" y="161.667"/>
      <point x="519" y="123" type="curve" smooth="yes"/>
      <point x="519" y="41"/>
      <point x="581" y="18"/>
      <point x="681" y="-11" type="curve" smooth="yes"/>
      <point x="731.667" y="-25.667"/>
      <point x="755" y="-44"/>
      <point x="755" y="-72" type="curve" smooth="yes"/>
      <point x="755" y="-121.333"/>
      <point x="684.667" y="-162"/>
      <point x="590" y="-162" type="curve" smooth="yes"/>
      <point x="404" y="-162" type="line" smooth="yes"/>
      <point x="320" y="-162"/>
      <point x="274" y="-101"/>
      <point x="274" y="7" type="curve" smooth="yes"/>
      <point x="274" y="77.667"/>
      <point x="283.333" y="142.333"/>
      <point x="302" y="201" type="curve"/>
      <point x="264" y="265" type="line"/>
      <point x="20" y="168" type="line"/>
      <point x="36" y="118" type="line"/>
      <point x="214" y="169" type="line"/>
      <point x="191.333" y="113"/>
      <point x="184" y="70.333"/>
      <point x="184" y="1" type="curve" smooth="yes"/>
      <point x="184" y="-147"/>
      <point x="261" y="-240"/>
    </contour>
  </outline>
</glyph>
